<svg xmlns="http://www.w3.org/2000/svg"
    viewBox="0 0 735 593"
    width="735"
    height="593"
    shape-rendering="geometricPrecision"
    text-rendering="geometricPrecision"
    image-rendering="optimizeQuality">


    <path fill="#00695C" d="M559.5 346.5c0 2.333 0 4.667 0 7h-3c-14.47-1.121-27.47 2.713-39 11.5-4.509 3.888-9.176 7.221-14 10 11.698-13.686 26.365-22.519 44-26.5h7c.313-3.542-.021-6.875-1-10-1.922-23.627-2.422-47.294-1.5-71 .752-14.715 2.085-29.382 3.5-44-19.92-32.179-40.587-63.846-62-95-6.5-9.167-14.333-17-23.5-23.5-11.084-5.128-16.751-1.628-17 10.5 2.366 25.131 9.532 48.798 21.5 71 10.245 18.831 21.245 37.164 33 55 2.019 3.691 3.686 7.358 5 11-17.648-22.629-34.315-45.962-50-70-12.556-20.003-20.556-41.669-24-65-.833-2.167-2.333-3.667-4.5-4.5-16.604-6.308-23.771-.808-21.5 16.5 4.405 15.548 9.405 30.881 15 46 10.4 25.444 20.733 50.777 31 76-23.005-35.679-41.505-73.679-55.5-114-5.849 3.015-9.682 7.682-11.5 14-.617 7.369-.283 14.702 1 22 2.001 8.005 4.001 16.005 6 24 8.539 22.785 17.373 45.452 26.5 68-.346 1.196-.846 1.196-1.5 0-13.963-24.843-26.463-50.509-37.5-77-4.614 4.308-7.448 9.642-8.5 16-1.351 16.855.982 33.189 7 49 5.107 14.217 10.774 28.217 17 42 6.388 10.109 11.721 20.776 16 32 .667 5.333.667 10.667 0 16-4.787 11.575-10.12 22.908-16 34-5.213 12.155-6.88 24.822-5 38 4.465 28.726 14.465 55.392 30 80 .749 1.135.583 2.135-.5 3-4.02 2.366-8.02 4.699-12 7-18.158-27.331-29.325-57.331-33.5-90-.915-13.29.418-26.29 4.5-39 5.667-12 11.333-24 17-36 .667-3.667.667-7.333 0-11-13.516-25.023-25.349-50.69-35.5-77-8.972 25.946-20.138 50.946-33.5 75-.84 5.307-.84 10.64 0 16 4.048 8.428 8.381 16.761 13 25 8.421 21.499 9.755 43.499 4 66-6.471 25.436-16.805 49.102-31 71-4.712-2.048-8.879-4.881-12.5-8.5 14.875-24.615 25.042-51.115 30.5-79.5 2.193-14.657.193-28.657-6-42-5.563-10.456-10.563-21.123-15-32-.667-5.333-.667-10.667 0-16 10.859-22.388 21.192-45.054 31-68 5.219-13.876 8.385-28.209 9.5-43 .426-8.866-1.407-17.199-5.5-25-1.019-1.187-2.186-2.187-3.5-3-11.744 27.415-24.91 54.082-39.5 80-.167-.5-.333-1-.5-1.5 13.267-29.706 24.433-60.206 33.5-91 1.442-7.952 1.775-15.952 1-24-.818-6.318-4.651-10.985-10.5-14-14.777 39.905-33.277 77.905-55.5 114-.654 1.196-1.154 1.196-1.5 0 21.253-38.929 37.086-79.929 47.5-123 3.087-10.704-.746-16.704-11.5-18-5.164.075-9.664 1.742-13.5 5-1.837 8.673-3.837 17.339-6 26-3.135 8.402-6.468 16.735-10 25-18.766 29.87-38.766 58.87-60 87-.315-1.408.018-2.741 1-4 17.394-26.781 32.727-54.781 46-84 5.225-13.673 9.225-27.673 12-42 .667-5.333.667-10.667 0-16-2.976-4.439-7.143-5.939-12.5-4.5-6.371 3.365-11.871 7.865-16.5 13.5-24.248 35.494-48.248 71.161-72 107 2.304 22.604 4.138 45.271 5.5 68-.001 15.338-1.001 30.671-2 46-.982 3.462-1.315 7.129-1 11h8c16.614 4.143 30.614 12.643 42 25.5-5.489-3.107-10.822-6.773-16-11-12.181-7.756-25.514-10.923-40-9.5 3.319-39.73.819-79.063-7.5-118-2.238-11.052-6.238-21.385-12-31-10.379-10.893-17.379-9.226-21 5-3.292 56.668-9.625 113.002-19 169-.999 8.579.001 16.912 3 25 2.451 6.904 5.451 13.57 9 20 14.048 23.599 28.214 47.099 42.5 70-3.565 3.39-7.565 6.223-12 8.5-19.859-28.372-37.692-58.039-53.5-89-1.741-4.554-3.074-9.221-4-14-.667-9-.667-18 0-27 8.034-50.747 13.701-101.747 17-153 .832-11.889 4.165-22.556 10-32 5.799-5.486 12.632-7.319 20.5-5.5 11.751 2.747 20.251 9.581 25.5 20.5 9.75-13.828 18.75-28.161 27-43 11.421-16.509 23.088-32.843 35-49 7.084-10.088 16.251-17.588 27.5-22.5 7.117-2.172 14.117-1.839 21 1 4.118 2.473 7.951 5.306 11.5 8.5 13.33-5.275 25.664-3.608 37 5 4.312 5.964 6.978 12.631 8 20 17.446 12.894 23.612 29.894 18.5 51 3.352 4.187 6.518 8.52 9.5 13 2.274-4.186 5.274-7.852 9-11-4.051-15.608-1.384-29.941 8-43 3.151-2.907 6.484-5.574 10-8 1.493-6.95 3.827-13.617 7-20 11.193-10.603 24.027-12.937 38.5-7 3.45-2.274 6.783-4.774 10-7.5 10.541-4.717 20.874-4.05 31 2 6.428 4.423 12.261 9.59 17.5 15.5 9 12.333 18 24.667 27 37 11.939 19.601 24.272 38.935 37 58 8.191-15.894 21.024-22.394 38.5-19.5 8.529 4.207 13.696 11.04 15.5 20.5 2.04 15.254 3.04 30.588 3 46 5.053 41.037 10.386 82.037 16 123 2.353 19.887-1.313 38.554-11 56-14.333 23.333-28.667 46.667-43 70-1.117 1.624-2.617 2.624-4.5 3-3.982-2.305-7.982-4.638-12-7 16.967-29.463 34.134-58.797 51.5-88 1.308-3.23 2.308-6.564 3-10 .667-8 .667-16 0-24-9.232-53.984-15.232-108.317-18-163-3.821-14.032-10.821-15.699-21-5-5.578 8.164-9.244 17.164-11 27-8.86 37.852-12.026 76.186-9.5 115z"/>
</svg>