<?xml version="1.0" standalone="no"?>
<svg version="1.0" xmlns="http://www.w3.org/2000/svg"
    width="1254.000000pt" height="1254.000000pt" viewBox="0 0 1254.000000 1254.000000"
    preserveAspectRatio="xMidYMid meet">

    <g transform="translate(0.000000,1254.000000) scale(0.100000,-0.100000)"
        fill="#000000" stroke="none">
        <path d="M6235 10173 c-30 -8 -827 -265 -1575 -508 -366 -120 -780 -254 -920
-300 -1017 -330 -989 -319 -1010 -393 -7 -25 -10 -872 -10 -2567 l0 -2530
-173 -58 c-229 -76 -221 -67 -225 -247 -4 -153 3 -177 60 -206 17 -9 664 -122
1446 -254 1335 -225 1925 -325 2262 -385 79 -14 163 -25 186 -25 23 0 161 20
306 45 144 25 434 74 643 110 209 35 697 118 1085 184 1599 273 1812 310 1844
323 54 22 66 58 66 205 0 180 2 177 -226 253 l-169 57 -5 2554 c-5 2488 -5
2555 -24 2582 -26 39 -39 44 -326 137 -140 45 -590 191 -1000 325 -736 240
-1937 629 -2098 679 -83 26 -99 28 -137 19z m-57 -825 l-3 -602 -270 -67
c-370 -92 -2956 -739 -2977 -745 -17 -5 -18 22 -18 478 l0 484 88 28 c127 41
1099 356 1592 516 234 76 594 193 800 260 206 67 461 150 565 185 105 35 198
64 208 64 16 1 17 -32 15 -601z m456 521 c138 -44 494 -159 791 -255 884 -287
1921 -623 2065 -669 l135 -44 3 -480 c1 -265 1 -481 -2 -481 -11 0 -3077 760
-3228 801 l-38 10 0 599 c0 435 3 600 11 600 6 0 124 -36 263 -81z m-164
-1715 c69 -14 427 -90 795 -170 369 -79 715 -154 770 -165 55 -12 186 -41 290
-66 236 -55 1122 -258 1228 -281 l77 -17 0 -162 0 -163 -22 5 c-78 18 -398 84
-423 87 l-30 3 -3 -341 -2 -342 22 -5 c13 -3 121 -20 241 -38 l217 -33 -2
-1290 -3 -1291 -95 -13 c-297 -42 -2388 -350 -2835 -417 -164 -25 -307 -45
-317 -45 -17 0 -18 78 -18 1781 l0 1782 53 -7 c28 -4 122 -18 207 -31 339 -54
536 -84 565 -87 l30 -3 3 401 2 401 -102 22 c-499 108 -772 164 -818 168 -58
5 -316 -43 -765 -145 l-210 -47 -3 -402 c-1 -281 1 -403 8 -403 6 0 196 29
422 65 226 36 415 65 420 65 4 0 8 -801 8 -1780 l0 -1780 -21 0 c-12 0 -65 7
-118 15 -247 38 -547 82 -1016 150 -280 41 -601 88 -712 105 -196 29 -1391
200 -1399 200 -2 0 -4 581 -4 1290 0 710 2 1290 4 1290 2 0 104 16 227 35 123
19 227 35 232 35 4 0 7 155 7 345 0 213 -4 345 -10 345 -5 0 -104 -20 -219
-45 -115 -25 -217 -45 -225 -45 -14 0 -16 22 -16 160 0 88 3 160 8 160 4 0
176 38 382 85 206 47 454 103 550 125 96 21 270 61 385 89 116 27 248 57 295
66 47 9 184 39 305 66 121 28 312 70 425 94 113 24 268 58 345 76 341 77 661
137 700 132 22 -3 96 -16 165 -29z m-87 -614 c53 -69 97 -129 97 -135 0 -14
-198 -255 -210 -255 -9 0 -163 183 -193 230 -16 25 -15 27 84 158 55 73 106
132 112 129 7 -2 56 -59 110 -127z m657 -262 c0 -182 -1 -198 -17 -197 -10 0
-74 10 -143 23 l-125 22 -3 194 c-1 107 -1 199 2 206 3 7 48 1 145 -20 l141
-30 0 -198z m-1250 49 l0 -203 -124 -22 c-188 -33 -167 -56 -164 175 l3 196
120 27 c66 15 130 28 143 29 l22 1 0 -203z m3628 -347 l72 -13 0 -144 c0 -163
10 -150 -100 -129 l-65 12 -3 148 c-2 117 0 147 10 143 7 -2 46 -10 86 -17z
m-6198 -135 c0 -80 -2 -145 -4 -145 -2 0 -39 -7 -81 -15 -43 -8 -82 -12 -86
-9 -5 3 -9 66 -9 140 0 151 -7 139 89 160 99 21 91 33 91 -131z m6655 -3180
c77 -25 146 -45 153 -45 8 0 12 -17 12 -50 0 -43 -3 -50 -22 -55 -27 -6 -301
-52 -1973 -335 -931 -157 -1181 -199 -1483 -251 l-293 -50 -227 40 c-441 78
-1775 303 -3039 513 l-503 83 0 47 0 47 144 45 c79 26 157 46 173 46 41 0
1188 -165 1983 -285 239 -36 586 -88 770 -115 184 -27 417 -61 516 -76 l182
-27 213 31 c533 79 1118 166 1384 207 160 24 538 80 840 125 303 44 651 96
775 114 124 19 232 34 240 35 8 0 78 -19 155 -44z"/>
        <path d="M7348 7614 c-10 -9 -9 -782 0 -788 5 -3 42 -10 83 -16 41 -7 346 -54
679 -106 817 -129 914 -143 917 -140 1 1 3 157 3 347 l1 344 -123 27 c-348 77
-890 195 -1188 258 -184 39 -342 73 -351 76 -8 2 -18 2 -21 -2z m424 -290
c117 -25 319 -67 448 -94 129 -27 323 -67 430 -89 107 -23 198 -41 203 -41 4
0 7 -72 7 -160 0 -88 -2 -160 -5 -160 -4 0 -713 116 -1090 179 l-230 38 -3
186 c-2 160 0 187 12 187 8 0 111 -21 228 -46z"/>
        <path d="M4740 7520 c-217 -48 -555 -122 -750 -164 -195 -43 -385 -84 -422
-93 l-68 -15 0 -350 0 -350 23 5 c20 5 543 88 1327 210 l335 52 3 398 2 397
-27 -1 c-16 -1 -206 -41 -423 -89z m270 -341 c-1 -151 -4 -181 -17 -186 -26
-10 -1298 -220 -1305 -216 -5 2 -8 73 -8 158 l0 153 68 15 c37 8 265 56 507
106 242 50 508 106 590 124 83 18 154 31 158 29 4 -2 7 -85 7 -183z"/>
    </g>
</svg>
