<?xml version="1.0" encoding="UTF-8"?>
<svg xmlns="http://www.w3.org/2000/svg" viewBox="0 0 36 36" preserveAspectRatio="xMidYMid meet">

    <!-- Main Book Cover -->
    <path d="M18 0L0 5v29l18 2l18-2V5z" fill="#000000"/>
    <path d="M18 36l18-2V5L18 0z" fill="#292F33"/>

    <!-- Top Golden Decorative Elements (Light Gold) -->
    <path fill="#FFD983" d="M22.454 14.507v3.407l4.229.612V15.22z"/>
    <path fill="#FFD983" d="M29.454 15.688v3.239l3.299.478v-3.161z"/>
    <path fill="#FFD983" d="M18 13.756v3.513l1.683.244V14.04z"/>
    <path fill="#FFD983" d="M36 16.792l-.539-.091v3.096l.539.078z"/>

    <!-- Top Golden Decorative Elements (Dark Gold) -->
    <path fill="#FFAC33" d="M0 16.792v3.083l.539-.078v-3.096z"/>
    <path fill="#FFAC33" d="M16.317 14.04v3.473L18 17.269v-3.513z"/>
    <path fill="#FFAC33" d="M3.247 16.244v3.161l3.299-.478v-3.239z"/>
    <path fill="#FFAC33" d="M9.317 15.22v3.306l4.229-.612v-3.407z"/>

    <!-- Detailed Ornamental Patterns -->
    <path fill="#FFD983" d="M21.389 15.131v-.042c0-.421-.143-.763-.32-.763s-.32.342-.32.763v.042c-.208.217-.355.621-.355 1.103c0 .513.162.949.393 1.152c.064.195.163.33.282.33s.218-.135.282-.33c.231-.203.393-.639.393-1.152c0-.482-.147-.886-.355-1.103z"/>
    <path fill="#FFD983" d="M28.388 16.2v-.042c0-.421-.143-.763-.32-.763s-.32.342-.32.763v.042c-.208.217-.355.621-.355 1.103c0 .513.162.949.393 1.152c.064.195.163.33.282.33s.218-.135.282-.33c.231-.203.393-.639.393-1.152c0-.481-.147-.885-.355-1.103z"/>
    <path fill="#FFD983" d="M34.405 17.23v-.039c0-.393-.134-.712-.299-.712s-.299.319-.299.712v.039c-.194.203-.331.58-.331 1.03c0 .479.151.886.367 1.076c.059.182.152.308.263.308s.203-.126.263-.308c.215-.189.367-.597.367-1.076c0-.45-.136-.827-.331-1.03z"/>

    <path fill="#FFAC33" d="M14.611 15.131v-.042c0-.421.143-.763.32-.763s.32.342.32.763v.042c.208.217.355.621.355 1.103c0 .513-.162.949-.393 1.152c-.064.195-.163.33-.282.33s-.218-.135-.282-.33c-.231-.203-.393-.639-.393-1.152c0-.482.147-.886.355-1.103z"/>
    <path fill="#FFAC33" d="M7.612 16.2v-.042c0-.421.143-.763.32-.763s.32.342.32.763v.042c.208.217.355.621.355 1.103c0 .513-.162.949-.393 1.152c-.064.195-.163.33-.282.33s-.218-.135-.282-.33c-.231-.203-.393-.639-.393-1.152c0-.481.147-.885.355-1.103z"/>
    <path fill="#FFAC33" d="M1.595 17.23v-.039c0-.393.134-.712.299-.712s.299.319.299.712v.039c.194.203.331.58.331 1.03c0 .479-.151.886-.367 1.076c-.059.182-.152.308-.263.308s-.204-.127-.264-.308c-.215-.189-.367-.597-.367-1.076c0-.45.137-.827.332-1.03z"/>

    <!-- Bottom Border Elements -->
    <path fill="#FFAC33" d="M0 11.146v3.5l18-3.268V7.614z"/>
    <path fill="#FFD983" d="M18 7.614v3.764l18 3.268v-3.5z"/>

</svg>