<?xml version="1.0" standalone="no"?>
<svg version="1.0" xmlns="http://www.w3.org/2000/svg"
    width="1254.000000pt" height="1254.000000pt" viewBox="0 0 1254.000000 1254.000000"
    preserveAspectRatio="xMidYMid meet">

    <g transform="translate(0.000000,1254.000000) scale(0.100000,-0.100000)"
        fill="#000000" stroke="none">
        <path d="M6125 10334 c-459 -35 -827 -115 -1195 -259 -139 -54 -397 -182 -540
-268 -293 -175 -600 -426 -832 -681 -605 -663 -954 -1462 -1029 -2357 -18
-208 -6 -696 20 -894 101 -746 367 -1370 841 -1972 98 -124 392 -424 525 -534
684 -570 1455 -895 2327 -984 185 -19 559 -19 764 0 726 67 1425 327 1976 737
471 350 887 848 1153 1377 101 202 205 462 205 513 0 84 -77 147 -163 132 -38
-6 -57 -22 -197 -167 -590 -610 -1095 -922 -1725 -1066 -462 -106 -930 -89
-1418 51 -966 276 -1748 1017 -2048 1940 -270 832 -165 1755 285 2513 143 240
248 376 451 583 275 282 559 489 915 666 247 123 415 185 684 256 117 31 155
45 178 67 37 35 51 87 37 138 -18 63 -55 89 -161 113 -149 34 -303 60 -448 77
-131 15 -503 27 -605 19z m424 -283 l65 -6 -75 -29 c-303 -116 -684 -348 -970
-589 -699 -593 -1106 -1375 -1190 -2291 -15 -163 -6 -566 16 -735 67 -519 227
-951 510 -1376 130 -196 206 -287 384 -465 279 -278 569 -485 916 -655 487
-238 966 -344 1500 -332 597 14 1135 181 1636 509 124 81 282 197 363 267 26
23 50 41 53 41 14 0 -172 -265 -283 -404 -103 -129 -291 -325 -424 -444 -872
-778 -2137 -1077 -3330 -786 -861 210 -1650 727 -2186 1434 -432 570 -677
1219 -735 1950 -14 182 -6 562 15 730 92 710 366 1349 814 1900 121 148 405
428 547 538 462 358 941 577 1495 686 118 23 334 52 445 59 89 6 368 5 434 -2z"/>
        <path d="M7970 8723 c-20 -10 -43 -33 -53 -53 -15 -31 -239 -524 -379 -835
-27 -60 -55 -115 -61 -121 -7 -6 -82 -19 -167 -29 -471 -53 -899 -113 -929
-131 -44 -26 -67 -90 -51 -138 12 -36 45 -68 530 -505 63 -57 152 -138 197
-180 l82 -76 -68 -345 c-158 -796 -144 -713 -127 -753 20 -49 70 -80 116 -73
20 3 183 88 375 197 187 105 396 222 463 261 l124 69 141 -79 c139 -78 299
-167 625 -351 89 -50 175 -94 191 -97 60 -12 131 50 131 114 0 11 -22 129 -49
263 -94 462 -152 771 -149 788 2 10 30 42 64 72 153 137 710 647 722 661 20
25 26 84 12 118 -22 52 -57 68 -181 85 -318 41 -823 105 -887 111 -68 6 -74 9
-89 37 -9 17 -110 238 -225 492 -115 253 -219 470 -231 482 -32 31 -84 38
-127 16z m174 -664 c65 -138 145 -313 178 -388 61 -137 78 -165 110 -182 9 -5
212 -34 449 -64 238 -30 434 -56 436 -59 3 -2 -15 -22 -39 -44 -431 -392 -595
-548 -607 -575 -17 -39 -15 -54 80 -532 38 -192 69 -355 69 -361 0 -7 -170 83
-377 198 -313 174 -385 211 -418 211 -34 0 -93 -29 -370 -183 -182 -100 -352
-196 -379 -212 -26 -16 -50 -28 -52 -26 -2 2 23 139 56 304 111 553 114 576
87 618 -8 12 -157 152 -331 311 -174 160 -313 291 -309 292 5 2 200 28 436 58
318 40 435 59 458 72 17 10 40 38 53 68 91 192 336 730 336 736 0 35 33 -24
134 -242z"/>
    </g>
</svg>
