<?xml version="1.0" standalone="no"?>
<svg version="1.0" xmlns="http://www.w3.org/2000/svg"
    width="1536.000000pt" height="1024.000000pt" viewBox="0 0 1536.000000 1024.000000"
    preserveAspectRatio="xMidYMid meet">

    <g transform="translate(0.000000,1024.000000) scale(0.100000,-0.100000)"
        fill="#000000" stroke="none">
        <path d="M8538 7400 c-198 -41 -353 -116 -497 -239 -191 -163 -331 -464 -331
-712 l0 -69 -94 -102 c-154 -170 -590 -652 -766 -848 -91 -101 -276 -305 -412
-454 -136 -148 -259 -291 -273 -318 -17 -31 -29 -73 -34 -123 -5 -42 -15 -84
-24 -93 -8 -9 -23 -28 -35 -42 -11 -14 -47 -58 -80 -97 -33 -40 -68 -94 -78
-119 -17 -45 -17 -50 0 -115 l17 -68 -43 -38 c-44 -40 -154 -153 -205 -213
-131 -152 -194 -337 -164 -482 47 -225 247 -366 616 -433 50 -9 106 -20 125
-24 l35 -7 6 -76 c7 -84 29 -127 77 -152 76 -39 355 -106 527 -125 55 -7 116
-14 135 -16 221 -27 418 -38 705 -39 509 -1 821 37 1086 134 167 61 173 73
189 347 12 211 12 212 -10 258 -37 77 -142 140 -315 190 -107 31 -376 72 -541
83 l-119 7 3 235 c4 272 1 287 -77 409 -28 44 -68 115 -89 160 l-39 80 46 32
c25 18 87 66 138 106 128 104 145 153 102 301 -12 40 -20 74 -18 76 17 14 255
186 339 246 121 85 231 165 312 227 58 44 58 44 212 69 111 17 242 71 359 147
201 131 346 317 419 537 45 132 53 187 53 360 0 150 -3 174 -28 265 -96 347
-340 604 -672 708 -161 50 -394 62 -557 27z m382 -120 c139 -22 314 -99 422
-186 77 -61 179 -190 228 -289 65 -131 83 -215 84 -390 0 -162 -11 -229 -61
-354 -50 -126 -154 -261 -201 -261 -9 0 -35 -3 -57 -6 l-40 -7 51 54 c82 87
79 79 48 156 -14 37 -30 72 -34 76 -4 5 -58 -34 -119 -87 -62 -53 -123 -102
-136 -108 -48 -22 -39 4 19 56 l59 52 -52 87 c-28 48 -56 89 -60 91 -4 3 -46
-24 -92 -59 -52 -40 -94 -65 -109 -65 -24 0 -23 2 15 35 22 20 66 56 98 82 32
25 56 50 55 55 -6 18 -114 158 -122 158 -5 0 -53 -31 -107 -70 -98 -70 -119
-81 -119 -57 1 10 105 100 174 150 19 14 19 15 -3 43 -12 16 -47 55 -77 86
l-55 58 -72 -63 c-123 -106 -155 -129 -163 -115 -5 7 30 48 95 111 l103 99
-73 74 -72 73 -60 -52 c-112 -98 -125 -108 -132 -97 -4 6 30 48 74 94 l81 83
-49 46 c-28 26 -55 47 -62 47 -6 0 -37 -22 -69 -50 -32 -27 -60 -50 -64 -50
-19 0 0 35 45 84 l50 55 -33 30 c-18 17 -46 36 -61 43 -25 12 -27 17 -22 48
10 53 49 114 92 141 64 42 200 88 298 102 61 8 222 7 285 -3z m-748 -212 c-26
-72 -21 -243 12 -353 63 -213 184 -405 375 -595 152 -152 265 -234 424 -310
128 -62 199 -80 305 -80 76 0 83 -2 71 -16 -20 -24 -84 -54 -140 -64 -95 -18
-252 17 -394 88 -322 161 -639 535 -742 877 -23 77 -27 109 -27 220 -1 109 2
136 18 165 18 34 92 110 106 110 4 0 1 -19 -8 -42z m-192 -242 c-5 -15 -10
-54 -10 -86 0 -32 -7 -89 -16 -127 -29 -124 -18 -320 25 -445 97 -282 381
-528 680 -590 80 -17 126 -19 284 -16 l188 3 -43 -18 c-93 -40 -160 -52 -288
-52 -144 1 -229 20 -366 84 -117 55 -197 112 -294 210 -179 180 -275 389 -287
621 -8 155 21 267 103 408 28 47 41 51 24 8z m-225 -653 c11 -58 77 -202 129
-281 145 -219 394 -400 642 -465 45 -12 83 -26 85 -32 2 -5 -70 -62 -161 -126
-1084 -760 -1228 -859 -1420 -979 -85 -52 -143 -70 -174 -53 -12 7 21 33 152
120 161 106 605 411 917 629 83 58 223 156 312 217 90 62 163 114 163 117 0 3
-27 11 -61 17 -90 17 -269 109 -369 190 -141 114 -239 246 -301 408 -50 129
-50 133 12 208 30 36 57 66 60 66 4 1 10 -15 14 -36z m-200 -240 c25 -137 227
-414 366 -504 27 -17 49 -34 49 -38 0 -5 -195 -158 -432 -342 -238 -184 -538
-416 -667 -516 -129 -101 -242 -183 -251 -183 -19 0 -85 46 -116 81 -58 65
-103 168 -106 243 -2 42 -2 42 457 551 253 279 509 564 569 631 60 68 112 121
116 119 4 -3 11 -22 15 -42z m420 -1263 c4 -16 4 -34 0 -40 -6 -10 -179 -135
-359 -258 -48 -33 -93 -59 -100 -56 -6 2 -17 13 -24 24 -11 18 -6 24 50 65 35
24 142 100 238 169 96 68 178 124 182 125 3 1 9 -12 13 -29z m-1633 -212 c20
-38 64 -95 113 -144 69 -69 96 -88 193 -136 l112 -55 -45 -13 c-59 -17 -110
-9 -191 29 -86 40 -189 143 -229 226 -30 64 -39 151 -21 210 l9 30 13 -42 c7
-24 27 -71 46 -105z m-130 -170 c33 -70 176 -208 216 -208 6 0 12 -4 12 -10 0
-5 -4 -10 -10 -10 -5 0 -44 -23 -86 -50 -84 -55 -112 -65 -147 -56 -65 16
-143 101 -153 168 -6 34 -2 42 62 117 38 45 74 81 80 81 5 0 17 -15 26 -32z
m1134 -42 c41 -63 174 -397 174 -438 0 -11 -28 -66 -62 -122 -34 -55 -81 -134
-106 -173 -24 -40 -47 -75 -51 -77 -4 -3 -59 -10 -122 -16 -355 -35 -532 -72
-687 -145 -119 -57 -165 -93 -193 -155 -25 -56 -11 -55 -159 -13 -96 27 -218
82 -268 120 -49 37 -72 80 -72 136 0 82 36 136 204 304 l151 152 61 -6 c71 -6
94 2 274 102 l116 65 80 -3 c80 -2 81 -2 210 61 71 35 170 88 219 117 131 77
199 115 207 115 4 0 15 -11 24 -24z m392 -152 c29 -59 52 -107 50 -109 -18
-14 -128 -85 -131 -85 -2 0 -12 21 -22 48 -10 26 -31 76 -47 110 -16 35 -28
65 -26 66 16 13 114 76 118 76 3 0 29 -48 58 -106z m128 -238 c3 -19 4 -142 2
-273 l-3 -238 -30 -6 c-50 -11 -231 -10 -283 2 -92 19 -93 23 -39 131 26 53
74 135 106 184 59 90 198 234 226 234 8 0 17 -14 21 -34z m-1891 -17 c4 -6
-29 -47 -72 -92 -158 -162 -213 -262 -213 -386 0 -99 23 -155 90 -222 83 -83
197 -135 405 -184 85 -20 90 -23 93 -48 4 -32 18 -32 -148 9 -195 48 -309 102
-393 186 -71 71 -97 134 -97 236 0 148 51 251 205 409 98 101 117 114 130 92z
m2220 -524 c157 -19 262 -38 386 -71 200 -53 292 -102 292 -157 0 -39 -26 -63
-109 -102 -141 -67 -379 -119 -664 -146 -141 -13 -584 -16 -735 -5 -261 19
-519 64 -684 120 -161 55 -204 90 -181 146 38 92 361 191 698 216 l94 7 -4
-24 c-3 -22 -10 -24 -133 -41 -228 -32 -409 -85 -471 -140 -82 -72 -12 -117
251 -163 216 -38 391 -54 670 -61 249 -7 320 2 143 17 -121 10 -219 34 -292
72 -48 25 -83 62 -71 75 1 1 53 -2 115 -8 190 -16 463 17 538 66 26 17 26 18
6 167 -8 55 -23 52 151 32z m669 -512 c-4 -65 -10 -122 -14 -126 -4 -4 -40
-22 -81 -38 -121 -50 -331 -94 -489 -103 -85 -5 -89 -3 -16 9 25 4 35 9 27 14
-7 5 -12 12 -12 17 1 5 -25 38 -56 73 -32 35 -58 69 -58 75 0 6 -20 13 -45 17
l-45 5 35 7 c19 4 80 12 135 18 215 23 464 78 560 124 27 13 53 24 58 24 4 1
4 -52 1 -116z"/>
        <path d="M8804 7167 l-21 -21 63 -38 64 -38 70 35 c38 19 70 37 70 40 0 9
-106 34 -165 39 -52 4 -63 2 -81 -17z"/>
        <path d="M8581 7154 c-117 -34 -118 -36 -67 -63 l44 -24 81 47 c44 26 93 51
108 56 23 7 18 8 -27 9 -30 0 -93 -11 -139 -25z"/>
        <path d="M8700 7103 c-14 -9 -40 -28 -59 -41 l-34 -25 24 -18 c13 -11 40 -30
61 -45 l36 -25 44 33 c24 18 54 40 66 48 23 15 23 15 -35 52 -65 43 -68 43
-103 21z"/>
        <path d="M9037 7083 c-37 -21 -66 -40 -65 -44 2 -3 32 -30 66 -59 72 -59 64
-60 171 7 l63 41 -43 29 c-49 33 -104 63 -116 63 -4 0 -38 -17 -76 -37z"/>
        <path d="M8360 7069 c-30 -16 -59 -34 -63 -38 -7 -7 83 -85 97 -83 4 1 34 21
67 46 l60 46 -47 30 c-26 16 -50 30 -53 30 -4 0 -31 -14 -61 -31z"/>
        <path d="M8498 6965 c-32 -25 -58 -49 -58 -53 0 -4 17 -20 37 -37 76 -61 66
-61 138 -6 l65 50 -58 45 c-31 25 -59 46 -62 46 -3 0 -31 -20 -62 -45z"/>
        <path d="M8837 6965 c-60 -41 -82 -65 -59 -65 5 0 36 -25 69 -55 34 -30 64
-55 68 -55 12 0 135 93 135 102 0 8 -130 118 -140 118 -3 0 -36 -20 -73 -45z"/>
        <path d="M9228 6936 l-77 -52 73 -79 73 -79 71 53 c40 29 72 57 72 61 0 16
-117 151 -130 149 -3 0 -40 -24 -82 -53z"/>
        <path d="M8646 6834 l-58 -46 68 -69 c38 -38 72 -69 76 -69 5 0 38 23 74 51
53 42 63 54 52 64 -74 69 -130 115 -141 115 -6 0 -38 -21 -71 -46z"/>
        <path d="M9035 6804 c-32 -24 -63 -48 -68 -53 -6 -6 18 -40 63 -89 l73 -80 68
52 c37 28 68 54 68 58 1 8 -127 152 -137 155 -4 1 -34 -18 -67 -43z"/>
        <path d="M9410 6739 c-90 -65 -88 -57 -35 -137 l48 -71 58 47 c32 26 58 53 58
60 1 19 -57 142 -66 141 -4 0 -33 -19 -63 -40z"/>
        <path d="M8836 6659 l-66 -51 71 -79 c39 -44 74 -81 78 -83 3 -2 36 21 74 51
l67 54 -71 80 c-40 43 -75 79 -79 79 -4 0 -37 -23 -74 -51z"/>
        <path d="M9220 6603 c-25 -19 -53 -41 -64 -48 -17 -13 -15 -18 39 -95 l57 -80
61 52 c34 29 64 53 66 55 7 5 -94 153 -104 152 -5 0 -30 -16 -55 -36z"/>
        <path d="M9502 6522 l-53 -47 33 -80 c18 -44 34 -82 35 -84 2 -3 17 9 34 25
l30 29 -7 85 c-10 128 -10 127 -72 72z"/>
        <path d="M9028 6459 c-38 -28 -68 -55 -68 -59 0 -10 110 -160 117 -160 9 0
133 103 133 110 0 7 -109 160 -113 160 -1 0 -32 -23 -69 -51z"/>
        <path d="M9347 6394 c-32 -25 -60 -51 -63 -58 -3 -7 16 -49 42 -95 l47 -83 54
54 53 53 -31 80 c-16 44 -33 83 -37 87 -4 4 -34 -13 -65 -38z"/>
        <path d="M9167 6249 l-67 -52 26 -41 c14 -22 37 -62 52 -88 15 -26 29 -48 32
-48 3 0 33 25 67 55 l62 56 -18 32 c-9 18 -30 56 -46 85 -15 28 -31 52 -35 52
-3 0 -36 -23 -73 -51z"/>
        <path d="M9552 6270 c-14 -23 -16 -70 -3 -70 7 0 24 81 17 87 -1 1 -7 -7 -14
-17z"/>
        <path d="M9442 6162 l-52 -47 25 -60 c13 -33 25 -66 25 -72 0 -28 17 -9 49 55
28 57 32 74 27 108 -11 65 -17 66 -74 16z"/>
        <path d="M7505 5510 c-57 -29 -313 -278 -321 -313 -23 -101 72 -193 180 -173
34 7 269 181 335 250 43 45 53 114 22 162 -50 80 -143 112 -216 74z m118 -97
c9 -9 17 -30 17 -49 0 -29 -9 -41 -67 -90 -93 -76 -101 -80 -112 -52 -5 13
-23 36 -40 53 l-32 30 33 28 c114 97 131 108 157 102 14 -4 34 -14 44 -22z
m-235 -235 c9 -20 10 -33 2 -48 -23 -43 -94 -33 -106 16 -15 60 77 89 104 32z"/>
    </g>
</svg>
