<?xml version="1.0" standalone="no"?>
<svg version="1.0" xmlns="http://www.w3.org/2000/svg"
    width="470.000000pt" height="537.000000pt" viewBox="0 0 470.000000 537.000000"
    preserveAspectRatio="xMidYMid meet">

    <g transform="translate(0.000000,537.000000) scale(0.100000,-0.100000)"
        fill="#000000" stroke="none">
        <path d="M3166 5020 c-92 -19 -104 -23 -216 -68 -111 -45 -250 -144 -330 -236
-140 -162 -230 -393 -230 -593 0 -60 -2 -66 -36 -101 -20 -20 -70 -75 -112
-122 -43 -47 -106 -117 -142 -155 -36 -39 -80 -89 -99 -110 -33 -38 -230 -254
-241 -265 -3 -3 -43 -48 -90 -100 -135 -152 -238 -266 -561 -621 -176 -192
-193 -219 -204 -329 -6 -51 -13 -71 -35 -95 -81 -89 -160 -199 -170 -235 -9
-32 -8 -54 4 -101 l16 -59 -40 -36 c-159 -144 -275 -290 -320 -404 -89 -225
-7 -428 222 -553 80 -44 252 -91 440 -122 l36 -6 7 -67 c11 -116 37 -153 129
-178 135 -38 351 -83 446 -93 58 -7 143 -16 190 -21 499 -56 1128 -32 1472 56
167 42 257 86 290 141 12 21 19 79 28 221 11 175 11 197 -4 237 -31 81 -144
148 -336 199 -92 25 -346 61 -502 72 l-87 6 6 207 c7 240 1 281 -58 372 -40
62 -129 232 -129 246 0 5 16 19 36 33 123 87 215 166 230 198 20 42 15 147 -9
205 -22 50 -45 29 273 256 157 112 293 210 312 226 57 46 96 63 163 70 196 19
414 131 565 291 172 183 256 388 267 654 4 111 2 152 -15 230 -42 204 -122
352 -271 501 -99 98 -185 153 -321 204 -178 67 -392 83 -574 45z m369 -114
c231 -42 425 -167 549 -356 94 -144 130 -271 130 -460 0 -150 -20 -251 -74
-367 -33 -71 -100 -166 -133 -187 -23 -15 -117 -33 -117 -22 0 3 22 29 50 58
27 29 50 58 50 65 0 14 -41 125 -51 137 -4 4 -55 -33 -113 -82 -114 -99 -141
-116 -157 -106 -7 4 12 27 45 58 l57 51 -51 83 c-28 45 -54 82 -58 82 -5 0
-43 -27 -86 -60 -74 -57 -106 -72 -106 -51 0 6 23 29 51 53 29 24 67 57 85 73
l34 30 -55 73 c-31 39 -60 72 -65 72 -9 0 -112 -68 -169 -112 -28 -21 -41 -23
-41 -5 1 6 41 45 91 86 l89 75 -27 30 c-69 77 -108 116 -116 116 -5 0 -52 -36
-105 -80 -87 -73 -122 -93 -122 -73 0 5 44 50 97 101 l97 93 -70 69 -69 69
-85 -74 c-47 -41 -88 -75 -92 -75 -21 0 -1 30 67 100 l76 77 -46 41 c-24 23
-50 42 -57 42 -8 0 -36 -20 -65 -45 -50 -43 -73 -55 -73 -36 0 5 23 34 51 65
l50 55 -55 43 c-62 48 -66 61 -37 124 22 48 65 84 142 117 137 61 326 81 484
53z m-712 -198 c-11 -30 -16 -74 -16 -143 1 -120 27 -217 102 -370 140 -286
435 -570 716 -689 99 -41 166 -56 256 -56 77 0 81 -8 19 -40 -98 -50 -215 -47
-373 10 -358 130 -723 553 -802 932 -22 102 -19 233 5 287 18 40 83 111 102
111 4 0 0 -19 -9 -42z m-178 -215 c-4 -10 -11 -56 -15 -103 -4 -47 -13 -125
-20 -173 -15 -103 -3 -243 29 -348 59 -188 244 -390 454 -494 141 -70 247 -89
462 -81 160 5 168 4 135 -10 -71 -32 -182 -54 -275 -54 -199 0 -403 82 -574
229 -239 206 -363 534 -306 806 17 82 92 245 112 245 3 0 2 -8 -2 -17z m-211
-627 c10 -51 62 -172 98 -231 80 -125 194 -245 311 -324 76 -52 246 -129 325
-148 39 -9 72 -20 72 -24 0 -5 -39 -36 -87 -70 -100 -71 -316 -223 -413 -290
-36 -25 -148 -104 -250 -176 -319 -223 -360 -252 -555 -382 -234 -155 -292
-187 -328 -177 -15 3 -27 10 -27 14 0 4 89 66 198 139 223 149 382 258 715
490 127 89 303 211 389 270 86 59 155 109 154 111 -2 2 -33 10 -67 18 -137 32
-332 153 -446 279 -66 71 -139 190 -176 285 -45 117 -45 119 15 189 29 33 56
61 59 61 4 0 10 -16 13 -34z m-184 -243 c24 -75 81 -179 146 -263 48 -64 158
-169 203 -196 17 -10 31 -24 31 -30 0 -7 -70 -65 -155 -131 -85 -65 -193 -147
-239 -183 -117 -91 -311 -241 -441 -340 -60 -46 -112 -87 -115 -90 -3 -3 -23
-19 -45 -35 -22 -17 -87 -67 -144 -112 -60 -49 -112 -83 -126 -83 -66 0 -179
149 -204 269 -12 59 -10 67 45 127 16 18 58 65 94 105 36 40 92 102 126 138
33 37 80 88 105 116 52 59 43 49 144 161 44 49 107 118 139 154 33 36 77 85
100 110 22 25 60 68 85 95 82 89 179 199 201 228 12 15 23 27 25 27 2 0 13
-30 25 -67z m389 -1188 c0 -22 9 -16 -223 -178 -215 -149 -199 -141 -225 -113
l-22 23 178 123 c98 68 201 140 228 160 53 39 63 37 64 -15z m-1560 -117 c58
-152 207 -286 396 -359 l30 -11 -40 -15 c-77 -28 -183 5 -283 88 -107 90 -160
201 -147 305 3 30 10 54 13 54 4 0 18 -28 31 -62z m-92 -226 c36 -62 94 -123
156 -163 50 -32 56 -40 41 -46 -11 -4 -52 -29 -93 -55 -77 -51 -92 -55 -138
-37 -57 21 -133 117 -133 168 0 19 123 171 138 171 4 0 17 -17 29 -38z m1056
-30 c35 -38 167 -370 167 -418 0 -14 -8 -37 -18 -52 -23 -33 -56 -85 -115
-182 -77 -126 -58 -116 -252 -134 -93 -9 -208 -22 -255 -30 -263 -46 -478
-153 -511 -254 -10 -32 -13 -33 -46 -27 -69 13 -219 64 -278 94 -143 74 -171
149 -106 281 14 28 76 97 162 182 l139 136 59 -5 c56 -5 63 -3 172 52 63 32
131 69 151 82 32 20 48 23 115 21 68 -3 85 1 138 26 74 36 251 131 365 197 47
27 88 49 91 49 3 0 13 -8 22 -18z m367 -134 c23 -51 44 -98 47 -104 4 -11 -95
-84 -115 -84 -6 0 -14 10 -17 23 -4 12 -23 57 -42 100 l-35 79 23 16 c13 10
37 27 54 39 16 12 33 22 36 23 3 0 25 -42 49 -92z m126 -233 c9 -48 0 -472
-10 -482 -4 -4 -57 -9 -118 -12 -112 -3 -219 11 -237 33 -12 14 68 177 135
276 59 88 188 220 214 220 5 0 12 -16 16 -35z m-1770 -16 c4 -7 -18 -35 -53
-68 -74 -69 -153 -169 -190 -242 -24 -47 -28 -66 -28 -139 0 -70 4 -93 23
-130 62 -118 181 -188 421 -248 93 -24 106 -30 109 -49 2 -13 2 -23 0 -23 -2
0 -45 9 -95 20 -205 45 -322 97 -411 183 -113 109 -129 258 -46 425 27 55 61
100 136 178 98 101 119 116 134 93z m2082 -494 c306 -38 537 -102 610 -168
105 -97 -151 -210 -606 -267 -270 -35 -740 -30 -1020 9 -210 30 -431 84 -509
124 -166 88 -36 197 317 266 170 33 360 52 360 35 0 -3 -4 -13 -10 -23 -7 -14
-27 -20 -87 -26 -155 -14 -340 -58 -421 -99 -156 -79 -104 -138 165 -186 65
-12 179 -28 253 -36 157 -17 660 -29 545 -13 -208 29 -319 65 -352 115 -9 14
-14 27 -11 30 3 2 50 -1 104 -7 152 -17 396 9 492 51 45 20 45 20 39 63 -20
146 -20 147 -5 147 7 0 69 -7 136 -15z m623 -490 l-6 -109 -85 -35 c-97 -39
-314 -86 -440 -94 -77 -6 -81 -5 -44 6 26 7 38 16 33 22 -5 6 -21 24 -36 41
-48 53 -64 75 -75 99 -6 13 -20 25 -32 27 -11 2 56 14 149 27 192 26 411 78
482 115 26 13 51 21 54 18 4 -4 4 -56 0 -117z"/>
        <path d="M3305 4809 c-33 -5 -91 -18 -128 -29 -74 -23 -77 -35 -18 -60 27 -11
35 -8 98 30 37 22 78 43 91 46 12 4 22 10 22 15 0 5 -1 8 -2 8 -2 -1 -30 -5
-63 -10z"/>
        <path d="M3418 4802 c-16 -20 -15 -22 39 -54 30 -18 60 -32 67 -30 24 7 116
57 116 63 0 9 -73 26 -145 34 -52 6 -62 4 -77 -13z"/>
        <path d="M3295 4724 c-27 -19 -51 -38 -53 -43 -2 -5 20 -26 49 -47 42 -31 54
-35 68 -26 9 7 35 25 59 40 23 15 42 31 42 37 0 9 -101 76 -112 74 -1 0 -25
-16 -53 -35z"/>
        <path d="M3641 4725 c-80 -43 -79 -42 -50 -63 13 -9 41 -32 61 -50 21 -19 43
-32 50 -30 18 4 148 82 148 88 0 9 -126 89 -140 89 -3 0 -34 -15 -69 -34z"/>
        <path d="M2998 4708 c-32 -17 -58 -37 -58 -44 0 -8 4 -14 9 -14 4 0 25 -13 46
-30 l37 -29 54 41 c30 22 54 44 54 49 0 7 -73 60 -82 59 -2 0 -29 -15 -60 -32z"/>
        <path d="M3121 4607 l-54 -42 49 -42 c27 -24 53 -43 58 -43 14 0 117 82 114
90 -5 14 -90 80 -101 79 -7 0 -36 -19 -66 -42z"/>
        <path d="M3442 4609 l-64 -42 64 -58 c35 -32 69 -58 76 -59 13 0 116 72 126
89 6 9 -114 111 -131 111 -4 0 -37 -19 -71 -41z"/>
        <path d="M3817 4585 c-37 -25 -67 -49 -67 -53 1 -4 29 -38 64 -76 l64 -69 66
48 c36 27 66 54 66 61 0 18 -104 133 -120 134 -3 0 -36 -20 -73 -45z"/>
        <path d="M3271 4490 c-28 -22 -51 -44 -51 -49 0 -4 29 -36 65 -70 l64 -62 66
52 c36 28 65 52 63 54 -2 1 -31 27 -65 58 -35 32 -69 57 -77 57 -8 0 -37 -18
-65 -40z"/>
        <path d="M3625 4454 c-33 -25 -59 -50 -57 -56 2 -6 26 -35 55 -65 29 -30 56
-61 60 -69 6 -11 22 -4 72 34 35 26 64 53 65 60 0 15 -110 140 -125 141 -5 0
-37 -20 -70 -45z"/>
        <path d="M3980 4394 c-36 -25 -65 -51 -64 -57 1 -17 73 -127 82 -127 5 0 32
21 60 48 l52 47 -24 59 c-14 32 -29 63 -33 67 -5 5 -37 -12 -73 -37z"/>
        <path d="M3447 4324 c-32 -26 -57 -50 -55 -54 2 -5 32 -38 66 -75 42 -44 69
-64 79 -61 22 9 112 80 113 89 0 13 -123 147 -135 147 -5 0 -36 -21 -68 -46z"/>
        <path d="M3810 4273 c-25 -19 -54 -41 -64 -49 -20 -13 -20 -14 1 -36 11 -13
34 -44 52 -70 18 -27 35 -48 40 -48 4 0 31 22 61 48 l54 48 -37 61 c-53 87
-55 88 -107 46z"/>
        <path d="M4068 4195 l-46 -45 31 -79 32 -79 29 26 c28 27 28 28 23 116 -3 49
-10 93 -14 97 -4 4 -29 -12 -55 -36z"/>
        <path d="M3628 4139 c-29 -23 -57 -45 -61 -49 -5 -4 12 -36 38 -71 25 -34 50
-69 54 -78 10 -17 26 -8 99 56 l43 38 -52 73 c-29 39 -56 72 -60 72 -4 0 -31
-19 -61 -41z"/>
        <path d="M3912 4064 l-52 -46 42 -79 c24 -43 45 -79 48 -79 3 0 27 22 53 48
l48 48 -31 75 c-16 41 -30 75 -30 77 0 13 -35 -6 -78 -44z"/>
        <path d="M3760 3943 c-30 -25 -56 -49 -58 -54 -5 -13 90 -160 101 -156 21 7
106 83 107 96 0 17 -79 161 -88 160 -4 0 -32 -21 -62 -46z"/>
        <path d="M4111 3947 c-7 -10 -8 -23 -3 -38 9 -23 10 -23 17 9 8 38 3 49 -14
29z"/>
        <path d="M4015 3857 l-50 -45 16 -33 c9 -19 20 -49 23 -67 4 -17 11 -32 14
-32 13 0 72 117 72 141 -1 13 -6 37 -13 53 l-12 28 -50 -45z"/>
        <path d="M2195 3248 c-34 -19 -267 -241 -287 -273 -22 -37 -23 -64 -2 -108 31
-65 125 -98 187 -66 35 19 259 194 291 227 59 63 41 153 -43 209 -37 25 -111
31 -146 11z m94 -83 c63 -32 47 -84 -45 -154 -67 -51 -84 -59 -84 -41 0 5 -15
27 -34 48 l-35 38 51 45 c57 49 99 79 111 79 4 0 21 -7 36 -15z m-215 -211
c32 -32 10 -94 -34 -94 -47 0 -67 67 -28 94 28 20 43 20 62 0z"/>
    </g>
</svg>
