<?xml version="1.0" encoding="utf-8"?>
<!-- Black & White Optimized SVG - Cropped & DOCTYPE removed to fix IDE error -->
<svg version="1.0" xmlns="http://www.w3.org/2000/svg" width="100%" height="100%" viewBox="-375 -276 2540 1446" preserveAspectRatio="xMidYMid meet">
    <g transform="translate(0.000000,1024.000000) scale(0.100000,-0.100000)" fill="#000000" stroke="none">
        <path d="M8970 5984 c-19 -2 -80 -9 -135 -15 -372 -40 -1418 -269 -2285 -501
            -270 -72 -375 -109 -540 -194 -333 -171 -586 -429 -776 -790 -33 -61 -95 -156
            -143 -217 -85 -107 -87 -108 -121 -103 -19 3 -45 6 -57 6 -16 0 -23 6 -23 20
            0 28 -48 35 -235 34 -129 0 -176 -4 -241 -21 -283 -74 -493 -266 -576 -528
            -29 -89 -35 -269 -14 -374 20 -96 46 -167 87 -233 l29 -48 -185 0 -185 0 -162
            -133 c-356 -291 -595 -485 -630 -513 -21 -16 -38 -32 -38 -35 0 -15 1313 -20
            5110 -21 3760 0 5091 5 5089 21 0 3 -78 68 -172 143 -95 75 -286 229 -424 342
            l-253 206 -134 0 -134 0 -4 93 c-5 89 -8 100 -96 313 -100 241 -114 286 -137
            444 -20 135 -46 213 -93 275 -49 65 -103 101 -182 121 -98 25 -164 10 -344
            -77 -141 -68 -148 -70 -166 -54 -18 17 -28 15 -197 -29 -448 -117 -735 -187
            -740 -182 -4 3 30 81 75 174 171 354 246 589 258 808 26 434 -227 833 -627
            992 -120 48 -255 73 -419 77 -80 2 -161 1 -180 -1z m391 -160 c326 -62 570
            -296 653 -628 50 -197 19 -422 -97 -716 -38 -97 -232 -495 -275 -565 -11 -18
            -105 -91 -223 -174 -270 -191 -329 -234 -325 -238 1 -2 24 6 50 18 58 25 323
            127 468 180 88 31 956 260 1051 277 20 3 27 0 27 -12 0 -42 75 -561 115 -796
            25 -146 45 -268 45 -272 0 -6 -59 -10 -410 -28 -113 -6 -407 -22 -655 -35
            -877 -48 -1064 -55 -1165 -45 -404 42 -502 296 -364 940 71 331 157 570 423
            1170 l51 115 -37 -44 c-82 -96 -211 -275 -273 -378 -73 -121 -240 -447 -240
            -468 0 -8 -20 -18 -52 -24 -29 -6 -197 -40 -373 -76 -255 -53 -324 -64 -339
            -55 -10 7 -53 27 -95 45 -42 18 -134 58 -206 90 -312 137 -592 245 -637 245
            -28 0 -198 -42 -198 -49 0 -4 42 -21 93 -40 372 -135 965 -388 1067 -456 142
            -95 220 -208 220 -323 0 -164 -64 -220 -585 -512 -159 -89 -320 -179 -357
            -200 l-67 -38 -78 82 c-43 45 -126 136 -185 203 l-108 121 93 53 c182 105 652
            382 672 396 18 14 16 14 -30 8 -68 -9 -139 -30 -278 -82 l-119 -45 -386 127
            c-213 70 -392 128 -398 130 -7 2 -74 77 -150 166 -77 89 -190 220 -251 291
            -62 71 -113 131 -113 134 0 14 157 277 208 349 91 128 261 296 381 377 230
            154 398 215 992 362 167 41 383 93 479 116 96 23 288 68 425 100 400 94 931
            193 1180 220 103 11 272 4 376 -16z m-3999 -1774 c262 -314 328 -395 328 -401
            0 -7 -124 -99 -133 -99 -3 0 -63 78 -135 173 -71 94 -163 215 -205 266 l-75
            95 45 59 c37 48 48 56 58 45 7 -7 59 -69 117 -138z m-718 -4 c-69 -265 -153
            -773 -189 -1150 l-7 -68 -41 5 c-58 8 -177 70 -237 124 -100 90 -174 215 -205
            346 -19 80 -19 215 1 297 65 279 339 495 631 499 l61 1 -14 -54z m3466 -175
            c0 -5 -11 -51 -25 -103 -59 -224 -78 -514 -42 -661 10 -38 17 -71 17 -75 0 -4
            -135 -8 -300 -9 -165 -2 -300 -1 -300 2 0 2 37 29 83 59 102 67 185 153 228
            237 30 58 33 72 34 154 0 83 -3 96 -34 160 -19 38 -52 88 -74 112 -22 24 -38
            45 -36 46 7 5 403 84 427 86 12 0 22 -3 22 -8z m-1952 -406 c161 -49 292 -92
            292 -95 -1 -5 -98 -61 -331 -192 -78 -44 -97 -49 -195 -63 -137 -18 -191 -36
            -367 -128 -78 -40 -162 -79 -187 -86 -25 -7 -53 -15 -62 -17 -13 -4 -16 -1
            -12 9 3 8 29 19 58 25 52 10 125 49 126 66 0 4 -11 6 -25 4 -14 -3 -25 -2 -25
            3 0 4 33 18 73 29 107 31 125 40 152 72 37 44 34 112 -10 212 -19 44 -34 81
            -32 82 1 0 29 20 62 42 33 23 85 61 115 86 30 25 60 44 66 43 6 -1 142 -42
            302 -92z m5022 -151 c179 -276 178 -280 -39 -286 l-134 -3 -24 140 c-37 212
            -40 195 37 216 101 27 99 28 160 -67z m27 -362 c10 -6 7 -17 -12 -42 -29 -39
            -33 -96 -10 -140 22 -43 48 -53 115 -45 52 6 58 5 62 -13 15 -57 131 -75 221
            -34 85 38 177 154 210 263 4 12 20 15 74 15 62 -1 73 -4 105 -31 20 -16 108
            -91 196 -165 87 -74 195 -164 238 -199 43 -36 83 -68 89 -73 5 -4 -2092 -8
            -4660 -8 l-4670 0 35 28 c19 15 141 115 270 223 130 108 246 201 257 208 14 7
            66 10 141 8 l120 -2 60 -57 c81 -78 165 -130 260 -161 88 -29 199 -43 255 -33
            31 6 35 10 31 30 -4 23 -2 24 86 28 82 4 97 8 171 46 44 23 86 42 94 42 7 0
            36 -8 65 -17 45 -14 51 -19 45 -37 -16 -50 -17 -87 -1 -111 28 -43 53 -50 186
            -52 217 -3 233 -2 330 17 163 32 172 32 346 10 235 -31 339 -18 488 57 l49 25
            51 -50 c72 -69 105 -92 133 -92 28 0 279 127 519 263 l170 97 385 0 384 0 24
            -45 c33 -62 121 -147 189 -183 171 -90 319 -103 902 -77 58 3 238 10 400 15
            162 5 336 12 385 15 50 2 308 12 575 21 267 9 486 18 488 19 2 2 -21 147 -34
            207 -4 22 -1 27 18 31 41 8 153 7 165 -1z"/>
    </g>
</svg>