<?xml version="1.0" standalone="no"?>
<svg version="1.0" xmlns="http://www.w3.org/2000/svg"
    width="507.000000pt" height="221.000000pt" viewBox="0 0 507.000000 221.000000"
    preserveAspectRatio="xMidYMid meet">

    <g transform="translate(0.000000,221.000000) scale(0.100000,-0.100000)"
        fill="#000000" stroke="none">
        <path d="M3035 1963 c-216 -19 -1090 -218 -1281 -292 -197 -77 -337 -205 -455
-416 -70 -126 -125 -170 -160 -129 -11 14 -30 16 -119 12 -90 -4 -114 -9 -172
-36 -76 -35 -145 -99 -178 -166 -43 -90 -44 -214 -1 -310 l20 -46 -78 0 -78 0
-115 -93 c-63 -50 -153 -123 -201 -162 l-86 -70 2386 -3 c1312 -1 2389 0 2392
3 2 3 -4 12 -15 19 -10 8 -99 80 -197 160 l-179 146 -64 0 -64 0 0 38 c0 22
-19 86 -45 151 -25 62 -54 156 -65 209 -21 103 -37 134 -90 170 -48 32 -98 29
-185 -14 -42 -20 -81 -33 -92 -30 -10 3 -112 -19 -228 -49 -115 -30 -211 -53
-212 -51 -2 2 19 50 46 107 70 147 102 250 108 344 10 150 -36 273 -141 373
-113 109 -258 152 -451 135z m207 -74 c162 -35 276 -155 307 -323 21 -112 -19
-260 -122 -459 -65 -127 -77 -139 -235 -246 -35 -24 -62 -44 -60 -46 2 -3 62
18 133 46 72 27 228 75 349 105 120 31 224 58 231 60 9 4 16 -20 24 -83 7 -48
25 -164 40 -256 19 -116 25 -170 17 -172 -6 -2 -121 -9 -256 -15 -135 -6 -355
-17 -488 -24 -289 -15 -360 -9 -411 32 -65 52 -76 83 -75 202 1 182 87 467
230 763 l15 32 -31 -35 c-52 -58 -135 -189 -181 -285 -24 -49 -45 -92 -46 -93
-1 -2 -75 -20 -165 -39 -132 -28 -170 -33 -198 -25 -29 8 -182 73 -325 136
-74 34 -104 38 -157 25 l-52 -12 89 -34 c162 -61 382 -155 441 -187 74 -41
115 -91 121 -149 10 -88 -14 -111 -297 -270 l-175 -99 -48 54 c-78 86 -120
138 -116 142 2 1 60 36 129 76 69 40 149 87 178 104 29 17 48 32 43 34 -5 2
-53 -11 -107 -29 l-97 -33 -186 62 -186 62 -115 136 c-63 75 -114 140 -112
145 8 29 117 191 154 229 137 144 234 187 630 284 712 174 962 216 1110 185z
m-1821 -898 c52 -62 94 -116 94 -118 0 -3 -14 -16 -31 -29 l-30 -24 -49 68
c-27 37 -68 90 -92 119 -48 57 -51 68 -27 102 14 19 19 20 28 9 7 -7 55 -64
107 -127z m-394 67 c-48 -218 -87 -462 -87 -540 0 -30 -1 -30 -36 -25 -115 19
-217 180 -201 318 18 148 146 266 291 268 35 1 38 -1 33 -21z m1619 -100 c-33
-119 -44 -303 -21 -360 7 -17 -4 -18 -135 -18 l-142 0 48 33 c119 82 146 203
68 296 l-24 29 57 12 c32 7 74 16 93 20 58 13 63 12 56 -12z m-869 -185 c51
-16 93 -30 93 -33 0 -3 -41 -29 -92 -58 -68 -39 -107 -55 -157 -62 -42 -7 -99
-27 -156 -55 -49 -24 -101 -46 -115 -49 l-25 -6 25 11 c67 30 70 33 58 40 -8
5 -1 10 18 15 63 15 84 32 84 70 0 19 -7 49 -16 65 -8 17 -14 32 -12 34 2 2
27 21 57 43 l53 40 47 -14 c25 -7 88 -26 138 -41z m2333 -87 c57 -88 53 -100
-32 -104 l-66 -3 -12 58 c-6 32 -13 68 -15 80 -4 16 0 23 17 26 59 11 65 8
108 -57z m-9 -142 c6 -4 6 -11 -1 -19 -6 -8 -10 -29 -8 -47 3 -31 6 -33 42
-36 22 -2 45 -11 52 -20 16 -22 80 -19 113 5 14 11 36 35 48 54 38 59 53 71
79 65 14 -4 83 -55 154 -114 l130 -107 -1089 -3 c-599 -1 -1583 -1 -2186 0
l-1097 3 128 108 129 107 65 0 c62 0 68 -2 99 -34 41 -43 116 -76 187 -83 46
-5 54 -3 54 11 0 12 10 16 40 16 22 0 59 10 83 21 30 15 53 20 71 15 24 -6 27
-10 21 -34 -4 -21 0 -33 14 -46 18 -16 33 -17 138 -11 144 8 213 9 323 4 71
-3 93 0 134 19 l49 22 39 -35 c27 -25 45 -34 58 -30 11 3 85 42 165 86 l147
79 181 0 182 0 28 -40 c17 -23 49 -51 77 -65 87 -44 134 -46 669 -25 273 11
522 20 555 20 l59 0 -7 50 c-4 28 -5 54 -2 58 6 10 64 14 77 6z"/>
    </g>
</svg>
