<svg xmlns="http://www.w3.org/2000/svg" viewBox="0 0 10.24 10.24">
    <path
        fill="#444444"
        d="M9.6 3.008V2.56a4.352 4.352 0 0 0-2.87-1.279
         1.82 1.82 0 0 0-1.608.637
         1.933 1.933 0 0 0-1.61-.637
         A4.352 4.352 0 0 0 .64 2.56v.448L0 3.2v6.4l4.288-.896.192.256h1.28l.192-.256L10.24 9.6V3.2z
         M3.507 7.238a5.248 5.248 0 0 0-2.257.577L1.28 2.829
         A3.341 3.341 0 0 1 3.436 1.92
         a2.912 2.912 0 0 1 1.382.449
         l-.012 5.036
         a4.224 4.224 0 0 0-1.305-.166z
         M8.96 7.801
         a5.184 5.184 0 0 0-2.22-.563
         l-.103-.001
         c-.422 0-.83.061-1.215.175
         l.03-5.057
         a2.88 2.88 0 0 1 1.341-.435
         3.341 3.341 0 0 1 2.167.91
         l-.002 4.972z"/>
</svg>