<?xml version="1.0" standalone="no"?>
<svg version="1.0" xmlns="http://www.w3.org/2000/svg"
    width="1254.000000pt" height="1254.000000pt" viewBox="0 0 1254.000000 1254.000000"
    preserveAspectRatio="xMidYMid meet">

    <g transform="translate(0.000000,1254.000000) scale(0.100000,-0.100000)"
        fill="#000000" stroke="none">
        <path d="M3960 10395 c-202 -43 -341 -128 -475 -291 -8 -9 -29 -9 -87 -2 -113
15 -235 -7 -347 -63 -163 -81 -289 -244 -326 -424 -8 -38 -20 -72 -26 -74 -7
-2 -47 -21 -89 -42 -136 -68 -245 -202 -305 -374 -26 -75 -32 -244 -11 -339
22 -96 73 -200 132 -265 l45 -50 -108 -134 c-290 -359 -506 -722 -593 -992
-26 -81 -33 -122 -37 -216 -7 -150 11 -239 78 -377 41 -84 64 -117 122 -176
108 -109 244 -180 393 -206 100 -18 315 -8 423 19 46 12 86 20 88 17 2 -2 -1
-24 -8 -47 -8 -27 -13 -102 -14 -189 0 -122 4 -157 23 -225 45 -155 142 -299
260 -385 l62 -44 -8 -41 c-15 -82 -6 -237 17 -316 66 -218 226 -388 432 -458
l52 -17 39 -110 c224 -619 268 -803 255 -1043 -7 -124 -34 -239 -112 -481 -69
-215 -78 -288 -44 -349 17 -31 37 -48 78 -69 55 -27 58 -27 256 -27 234 0 325
16 408 72 28 19 51 32 53 30 2 -2 -1 -21 -7 -42 -6 -22 -9 -65 -7 -97 10 -143
108 -184 418 -175 306 8 417 45 493 162 92 142 228 719 292 1239 l16 129 75
70 c41 38 88 89 104 113 l30 42 42 -13 c106 -31 275 -27 390 11 l46 15 53 -40
c116 -87 308 -139 469 -126 101 8 246 52 313 95 26 16 51 30 56 30 5 0 28 -11
52 -24 58 -32 201 -76 245 -76 34 0 36 -2 71 -76 52 -113 83 -248 83 -358 0
-121 -31 -251 -120 -514 -84 -247 -92 -297 -58 -362 45 -87 153 -117 393 -107
276 12 395 50 459 148 74 111 230 606 272 863 15 96 19 106 29 85 29 -58 50
-176 50 -284 -1 -141 -25 -252 -112 -511 -92 -277 -96 -361 -21 -431 43 -41
103 -55 258 -60 244 -9 457 29 540 95 78 62 144 205 219 468 64 229 84 368 85
589 0 190 -6 253 -46 453 l-20 102 54 59 c97 104 178 297 178 423 0 54 -9 46
108 91 304 119 496 446 454 773 l-12 86 75 70 c158 148 240 326 252 552 9 176
-47 377 -142 506 l-35 48 20 45 c80 180 80 419 2 605 -80 190 -225 333 -418
411 l-67 27 -18 73 c-31 123 -91 223 -199 332 -106 107 -193 162 -320 203 -92
29 -241 48 -312 40 l-53 -6 -33 50 c-77 120 -187 213 -325 277 -110 51 -193
68 -327 68 -134 0 -217 -17 -326 -68 l-75 -34 -72 60 c-84 71 -218 139 -332
170 -114 31 -326 32 -440 2 -79 -21 -197 -71 -266 -115 l-36 -22 -58 39 c-74
49 -177 92 -263 110 -132 28 -315 15 -438 -31 l-41 -16 -51 54 c-44 45 -52 59
-52 93 0 55 -51 196 -93 258 -105 159 -292 271 -469 285 -42 3 -68 9 -68 16 0
7 -18 50 -41 96 -32 67 -57 100 -122 165 -152 150 -331 212 -536 185 l-86 -11
-90 88 c-157 153 -315 221 -535 228 -76 3 -137 0 -180 -10z m299 -210 c139
-33 279 -128 350 -237 75 -116 59 -107 137 -78 59 21 86 25 184 25 109 0 119
-2 183 -32 139 -66 251 -213 264 -348 3 -33 10 -65 14 -71 6 -7 42 -9 107 -6
158 7 267 -34 367 -139 79 -82 114 -163 123 -279 6 -72 12 -94 25 -102 64 -35
141 -127 173 -206 13 -31 28 -56 34 -54 6 1 34 21 63 45 97 79 213 113 352
104 136 -9 259 -64 366 -163 33 -30 66 -54 74 -54 8 0 43 22 76 49 134 108
283 162 449 163 186 1 344 -64 476 -196 44 -45 88 -92 96 -106 12 -19 20 -23
31 -15 8 6 49 33 90 61 96 66 177 94 294 101 118 8 195 -8 302 -59 113 -54
211 -151 267 -263 37 -75 41 -80 69 -77 160 14 275 13 335 -2 264 -66 445
-272 467 -532 l6 -73 51 -6 c28 -4 79 -18 114 -31 322 -120 455 -491 292 -815
-17 -32 -30 -67 -30 -77 0 -10 21 -45 46 -78 93 -119 154 -281 154 -410 0
-213 -91 -391 -261 -510 -44 -31 -83 -64 -86 -72 -4 -8 1 -47 10 -86 40 -173
31 -281 -34 -415 -73 -148 -198 -247 -360 -286 -35 -8 -80 -15 -100 -15 -52 0
-58 -13 -46 -94 46 -302 -184 -586 -536 -662 -86 -18 -276 -21 -367 -5 -242
43 -451 176 -597 379 -25 34 -46 62 -49 62 -2 0 -16 -26 -31 -57 -122 -258
-535 -325 -780 -127 -46 38 -74 43 -94 17 -8 -9 -40 -36 -72 -60 -83 -61 -190
-93 -310 -93 -157 0 -269 44 -367 142 -31 32 -62 58 -68 58 -7 0 -38 -14 -69
-30 -152 -79 -336 -73 -488 15 -25 15 -51 25 -58 22 -7 -3 -20 -30 -30 -60
-67 -211 -296 -356 -564 -357 -198 0 -373 66 -487 186 -50 52 -101 142 -111
196 -13 71 -85 110 -146 78 -29 -16 -52 -68 -46 -105 5 -31 3 -33 -29 -38 -48
-8 -189 8 -249 28 -229 77 -373 244 -389 450 -5 74 -13 85 -61 85 -51 0 -146
29 -202 61 -197 113 -286 357 -217 595 23 80 16 96 -63 140 -89 49 -191 152
-231 232 -66 133 -80 326 -34 482 l19 65 119 17 c371 54 635 172 900 403 31
28 59 45 61 39 14 -41 115 -173 177 -231 120 -113 235 -163 372 -163 88 0 149
20 204 68 111 94 173 256 195 512 l6 65 132 0 c109 0 145 4 207 24 224 69 418
237 530 461 180 358 155 799 -63 1120 -45 66 -163 186 -233 236 -81 58 -231
129 -329 156 -67 18 -107 21 -245 22 -151 0 -173 -3 -253 -27 -292 -90 -501
-296 -553 -547 -14 -65 -14 -162 -1 -222 4 -18 -93 -39 -163 -35 -81 5 -144
32 -206 89 -48 44 -99 134 -110 196 -10 51 -30 50 -82 -1 -53 -52 -136 -94
-203 -103 -108 -15 -230 43 -296 141 -19 28 -40 51 -47 53 -7 2 -26 -14 -42
-35 -42 -56 -83 -91 -139 -121 -44 -24 -61 -27 -145 -27 -84 0 -102 3 -152 28
-74 36 -159 128 -189 204 -19 48 -23 77 -24 168 0 107 1 112 37 188 60 125
182 222 303 242 92 14 85 7 85 94 0 182 91 331 248 408 73 36 206 44 297 18
114 -32 108 -34 144 30 70 124 212 230 361 269 73 19 219 19 299 1z m961
-1219 c86 -16 189 -53 256 -92 l45 -27 -48 -16 c-136 -46 -219 -131 -264 -271
-11 -35 -22 -54 -31 -52 -72 19 -161 33 -197 30 -41 -2 -46 0 -57 27 -20 47
-17 173 5 238 22 63 70 138 103 162 27 18 88 19 188 1z m-352 -73 c-56 -115
-61 -244 -14 -354 5 -12 -3 -19 -36 -28 -24 -7 -90 -37 -147 -67 -113 -59
-150 -65 -182 -33 -19 19 -21 30 -17 95 7 108 55 199 150 290 77 73 200 143
269 153 3 1 -7 -25 -23 -56z m817 -194 c28 -33 66 -90 87 -126 36 -65 93 -221
84 -230 -2 -2 -18 3 -35 12 -94 48 -234 39 -323 -21 -27 -19 -53 -34 -57 -34
-4 0 -14 13 -23 28 -17 29 -81 91 -132 127 l-28 20 21 56 c47 125 187 227 311
228 43 1 47 -2 95 -60z m-2470 -300 c80 -54 147 -72 265 -72 80 0 119 5 163
20 l59 21 71 -73 c101 -101 223 -155 352 -155 25 0 45 -2 45 -4 0 -2 -11 -29
-25 -59 -29 -66 -80 -222 -95 -289 -35 -161 -42 -410 -15 -561 15 -86 15 -89
-5 -117 -35 -50 -152 -150 -251 -216 -216 -144 -432 -213 -769 -244 -64 -6
-162 -24 -220 -40 -246 -69 -423 -65 -580 12 -111 54 -223 183 -255 295 -6 21
-4 21 27 12 116 -33 296 21 373 113 42 49 26 118 -27 118 -11 0 -53 -12 -92
-27 -97 -36 -202 -38 -264 -5 -42 23 -44 25 -37 60 43 248 378 807 671 1120
l49 52 55 -15 c88 -24 215 -20 307 10 43 14 94 37 113 50 19 13 36 24 37 24 1
1 23 -13 48 -30z m1915 -96 c69 -30 143 -107 164 -170 20 -59 21 -163 0 -211
-28 -67 -95 -122 -149 -122 -14 0 -41 6 -60 14 -35 15 -37 20 -50 99 -7 45
-56 104 -102 123 -99 42 -231 -9 -298 -116 -54 -86 -71 -241 -39 -351 38 -128
131 -250 243 -319 l54 -33 -6 -111 c-13 -222 -77 -368 -173 -392 -70 -18 -188
33 -273 116 -69 67 -110 129 -150 225 -126 303 -99 669 76 1020 61 124 65 128
97 115 39 -15 117 -12 166 5 23 8 82 38 129 65 142 82 255 95 371 43z m662
-40 c89 -40 92 -45 85 -165 -5 -113 -33 -236 -71 -318 l-24 -52 -22 48 c-11
27 -35 64 -53 83 -34 36 -139 91 -172 91 -19 0 -21 6 -21 88 -1 59 -8 106 -21
145 l-20 58 31 16 c90 47 191 49 288 6z m-234 -402 c79 -41 137 -121 148 -205
6 -43 5 -46 -47 -101 -113 -119 -264 -193 -415 -203 -239 -15 -438 118 -469
314 -8 53 8 115 41 154 29 33 44 31 44 -6 0 -39 46 -119 87 -151 85 -66 210
-83 319 -42 77 29 172 123 204 202 13 31 30 57 37 57 8 0 30 -9 51 -19z
m-1403 -3712 c113 -38 227 -53 350 -45 l102 6 25 -32 c18 -25 31 -69 51 -173
42 -222 50 -284 44 -375 -7 -103 -91 -460 -112 -476 -40 -30 -313 -23 -453 12
-87 21 -105 31 -97 52 22 57 65 257 75 351 18 175 -17 457 -84 674 -13 45 -13
48 2 41 9 -4 53 -19 97 -35z m4245 -89 c30 -20 89 -54 130 -75 41 -20 76 -38
77 -39 1 -1 -4 -60 -12 -130 -24 -198 -67 -393 -146 -647 l-30 -96 -74 -6
c-116 -10 -415 27 -415 51 0 4 13 53 30 109 45 157 54 217 54 363 -1 145 -18
240 -68 373 l-25 66 57 16 c66 20 171 71 227 113 l40 29 50 -45 c28 -24 75
-61 105 -82z m1191 -176 c29 -147 36 -388 14 -534 -23 -158 -84 -406 -107
-436 -13 -18 -166 -26 -288 -14 -102 10 -250 36 -250 45 0 2 11 46 25 98 74
279 73 504 -3 733 l-27 81 135 6 c156 7 284 35 401 90 41 18 75 33 77 32 1 -1
12 -47 23 -101z m-4489 -79 c94 -20 300 -19 389 1 39 9 73 13 77 9 24 -24
-143 -904 -179 -940 -18 -18 -302 -12 -411 8 -127 24 -132 28 -113 90 47 155
60 266 59 497 -1 151 -6 252 -16 308 -8 45 -13 84 -10 86 2 3 33 -7 69 -20 36
-14 97 -31 135 -39z"/>
        <path d="M3306 8009 c-115 -18 -190 -138 -164 -264 14 -67 83 -136 153 -154
93 -23 207 26 249 108 37 72 26 172 -26 235 -52 63 -122 88 -212 75z"/>
    </g>
</svg>
