<svg version="1.0" xmlns="http://www.w3.org/2000/svg" width="1254.000000pt" height="1254.000000pt" viewBox="0 0 1254.000000 1254.000000" preserveAspectRatio="xMidYMid meet">
    <g transform="translate(0.000000,1254.000000) scale(0.100000,-0.100000)" fill="#000000" stroke="none">
        <path d="M10313 11181 c-336 -144 -574 -217 -988 -300 -274 -55 -369 -69
-1240 -191 -330 -46 -576 -93 -750 -144 -498 -145 -816 -404 -1024 -833 l-45
-92 -41 87 c-183 382 -482 653 -885 799 -234 85 -435 123 -1145 218 -1147 153
-1558 246 -2038 461 -138 62 -173 66 -217 27 -25 -24 -35 -49 -63 -163 -25
-99 -38 -134 -48 -132 -8 2 -106 40 -219 84 -235 93 -291 104 -333 67 -21 -20
-35 -55 -72 -194 -49 -186 -107 -395 -360 -1300 -92 -330 -183 -656 -202 -725
-19 -69 -58 -210 -88 -315 -59 -207 -321 -1142 -416 -1483 -32 -117 -59 -224
-59 -238 0 -50 26 -81 87 -104 90 -34 377 -138 498 -180 61 -21 193 -68 295
-105 456 -164 846 -301 2258 -791 262 -91 478 -167 479 -168 2 -1 -169 -153
-380 -336 -210 -184 -532 -466 -714 -628 l-333 -293 0 -388 0 -388 23 -21 c23
-22 80 -30 103 -14 7 4 165 158 353 342 227 222 358 343 389 359 35 18 68 26
129 29 295 16 521 -258 436 -529 -19 -63 -20 -63 -856 -884 l-508 -498 3 -518
3 -517 24 -26 c30 -32 82 -50 122 -41 34 8 83 49 389 330 113 104 284 261 380
349 202 185 365 337 715 666 138 129 306 287 375 350 69 63 192 178 275 255
224 209 1244 1145 1504 1380 73 66 136 120 141 120 13 0 1082 -971 1754 -1594
329 -305 615 -571 786 -731 91 -85 282 -263 425 -395 142 -132 374 -347 514
-477 194 -180 262 -238 287 -243 45 -8 99 17 124 57 19 32 20 49 20 539 l0
505 -207 201 c-115 110 -417 401 -673 647 -402 386 -469 454 -492 503 -35 73
-43 130 -29 201 44 221 241 375 462 360 117 -8 135 -21 518 -391 193 -185 362
-342 377 -347 19 -7 37 -7 60 0 65 22 64 14 64 436 l0 382 -162 143 c-189 167
-707 620 -1021 893 -155 135 -214 192 -204 198 14 8 112 43 422 153 99 35 245
87 325 115 80 29 188 67 240 85 52 18 223 79 380 135 157 56 353 126 435 155
83 29 256 92 385 138 129 47 323 116 430 155 511 184 917 336 933 350 27 24
35 71 22 127 -11 44 -264 949 -470 1680 -40 143 -112 400 -160 570 -47 171
-106 380 -130 465 -59 207 -238 848 -335 1193 -53 191 -84 285 -98 299 -34 35
-82 25 -331 -71 -129 -50 -235 -89 -236 -88 -1 1 -18 65 -38 141 -42 161 -58
186 -128 192 -37 4 -69 -6 -206 -65z m227 14 c17 -9 30 -17 30 -19 0 -16 657
-2423 926 -3396 159 -573 204 -747 199 -767 -7 -31 -33 -45 -155 -88 -1018
-354 -2148 -569 -3580 -680 -179 -14 -370 -30 -425 -35 -611 -64 -912 -220
-1027 -534 -39 -107 -56 -200 -64 -351 l-7 -125 -166 0 -166 0 -2 123 c-6 422
-180 662 -565 786 -205 65 -390 92 -948 136 -1230 98 -2213 269 -3162 550
-294 88 -557 180 -574 202 -7 10 -14 26 -14 35 0 16 54 220 255 958 35 129 80
294 100 365 20 72 72 261 115 420 43 160 102 373 130 475 134 484 340 1255
483 1800 29 112 35 126 60 138 25 12 36 9 140 -37 512 -227 895 -315 2032
-466 270 -36 558 -76 641 -90 459 -77 751 -193 1002 -398 174 -142 342 -380
432 -612 31 -81 36 -84 56 -39 110 249 183 373 293 496 223 251 505 403 932
502 222 51 330 68 1119 176 522 72 990 167 1290 262 100 32 360 133 495 192
93 41 88 40 125 21z m-8948 -236 c128 -50 234 -91 235 -92 6 -7 -45 -181 -54
-184 -5 -2 -65 17 -132 42 -140 52 -154 50 -171 -18 -7 -23 -139 -490 -295
-1037 -402 -1410 -665 -2335 -725 -2549 -50 -178 -51 -184 -33 -201 18 -17
275 -111 673 -245 1283 -432 2133 -681 3470 -1015 666 -166 956 -248 1155
-325 119 -46 254 -111 318 -153 41 -27 41 -27 241 -27 l201 0 45 29 c87 57
284 145 434 195 192 64 414 125 891 246 410 104 501 127 935 241 327 86 300
79 655 179 724 205 1795 547 2463 788 186 67 223 84 228 102 5 20 -173 652
-748 2660 -110 385 -222 781 -250 880 -27 99 -56 203 -64 232 -9 29 -22 54
-32 58 -9 3 -72 -14 -145 -41 -74 -27 -131 -43 -136 -38 -10 12 -54 175 -48
180 2 3 105 43 228 91 226 87 284 101 300 73 4 -8 51 -170 103 -360 78 -285
300 -1080 452 -1617 18 -68 50 -178 68 -245 19 -68 60 -211 90 -318 30 -107
91 -325 136 -485 45 -159 101 -360 125 -445 234 -833 225 -783 155 -807 -19
-6 -215 -78 -435 -158 -220 -81 -436 -160 -480 -175 -44 -16 -186 -66 -315
-113 -427 -154 -1080 -387 -1420 -507 -314 -111 -724 -258 -1815 -650 -247
-89 -508 -182 -580 -207 -71 -25 -133 -48 -138 -52 -5 -5 530 -521 895 -863
39 -36 38 -78 -4 -113 -40 -34 -67 -28 -128 28 -54 49 -526 497 -764 724
l-169 162 -156 -56 c-437 -155 -431 -153 -512 -153 -69 0 -98 8 -365 99 -159
54 -309 106 -333 114 -43 15 -45 15 -71 -6 -15 -12 -173 -157 -351 -322 -733
-679 -773 -715 -804 -715 -36 0 -75 42 -75 79 0 27 39 66 332 338 183 169 426
395 541 502 115 106 205 197 200 201 -4 4 -160 60 -346 125 l-338 118 -22 -20
c-27 -24 -245 -224 -465 -428 -90 -82 -173 -154 -186 -159 -60 -23 -118 37
-93 95 7 14 116 122 242 239 323 299 345 320 345 330 0 9 -44 25 -885 316
-324 113 -788 274 -1030 359 -242 84 -498 174 -570 198 -71 25 -168 59 -215
75 -47 17 -245 87 -440 156 -195 68 -470 166 -610 216 -140 50 -344 123 -453
162 -147 53 -202 77 -214 94 -16 26 -18 18 102 444 66 232 132 468 236 840 33
118 96 341 139 495 74 260 107 378 285 1020 36 132 90 326 120 430 155 550
275 987 275 1001 0 15 28 33 52 34 10 0 122 -41 250 -91z m58 -283 c95 -36
114 -47 112 -62 -7 -40 -206 -779 -467 -1729 -87 -313 -167 -608 -180 -655
-12 -47 -52 -193 -88 -325 -184 -676 -220 -814 -225 -857 -4 -44 -2 -50 29
-81 29 -29 69 -46 294 -120 962 -316 2041 -524 3265 -626 129 -11 323 -27 430
-36 799 -65 1103 -214 1210 -595 20 -71 50 -354 38 -365 -2 -3 -58 22 -122 54
-227 115 -511 204 -1200 377 -851 213 -1423 366 -1927 514 -652 192 -1455 451
-2057 663 l-314 111 6 30 c7 34 187 671 641 2261 404 1418 415 1456 415 1471
0 21 15 18 140 -30z m9400 -78 c18 -68 66 -240 107 -383 266 -928 894 -3132
911 -3192 11 -40 17 -75 12 -78 -44 -27 -1098 -383 -1670 -564 -735 -232
-1543 -457 -2480 -691 -776 -194 -1065 -282 -1300 -398 -74 -37 -138 -68 -142
-70 -19 -9 1 247 28 352 27 106 96 234 161 299 189 190 507 277 1178 322 681
47 1457 143 2055 256 488 92 1061 239 1506 388 267 89 281 95 304 134 32 52
40 14 -110 557 -384 1392 -835 3045 -842 3084 -2 15 17 26 112 62 63 24 120
43 126 44 6 0 25 -55 44 -122z m-7055 -5233 c116 -40 272 -95 348 -121 75 -26
136 -51 135 -55 -2 -4 -106 -102 -233 -219 -327 -301 -325 -298 -325 -355 0
-40 5 -52 35 -82 32 -32 39 -35 80 -31 53 6 27 -14 394 323 161 149 298 271
304 273 11 2 574 -190 603 -206 10 -6 -11 -30 -79 -92 -52 -47 -179 -164 -283
-260 -104 -96 -296 -273 -426 -393 -130 -121 -239 -229 -242 -240 -17 -63 8
-121 61 -144 67 -28 85 -17 300 179 337 310 836 769 884 816 l47 44 273 -95
c151 -52 291 -100 313 -107 31 -10 36 -14 25 -25 -8 -7 -106 -95 -219 -196
-449 -404 -1512 -1384 -2145 -1979 -132 -124 -386 -360 -565 -525 -179 -164
-374 -345 -435 -400 -331 -306 -342 -315 -378 -315 -19 0 -45 9 -58 19 -27 22
-26 -21 -21 651 l2 375 656 644 c485 477 662 657 679 692 116 228 -25 527
-289 612 -87 28 -212 26 -291 -4 -53 -20 -84 -45 -275 -230 -118 -114 -278
-271 -355 -348 -138 -139 -165 -157 -193 -129 -9 9 -12 106 -12 377 l0 366
148 131 c81 71 311 274 512 449 201 176 459 402 574 502 144 126 215 182 225
178 9 -4 111 -39 226 -80z m4865 21 c25 -24 297 -263 605 -531 308 -269 603
-527 656 -573 l96 -85 2 -363 c1 -320 0 -364 -14 -378 -9 -9 -26 -16 -38 -16
-15 0 -133 106 -377 341 -422 405 -406 394 -586 394 -118 0 -121 -1 -195 -37
-93 -46 -146 -92 -198 -169 -86 -129 -103 -280 -46 -407 24 -54 79 -110 631
-643 332 -321 633 -611 669 -645 l65 -60 0 -502 c0 -489 -1 -503 -20 -522 -11
-11 -33 -20 -51 -20 -27 0 -53 20 -163 124 -72 68 -259 242 -416 386 -157 145
-442 410 -635 590 -869 811 -1997 1845 -2441 2240 -34 30 -63 58 -63 61 -1 4
27 9 62 11 45 4 136 32 329 103 l268 97 397 -378 c219 -208 437 -415 484 -461
85 -81 87 -83 136 -83 60 0 96 24 113 75 23 69 13 81 -338 413 -602 571 -551
518 -522 531 14 5 216 78 450 162 502 179 849 303 980 352 52 20 99 36 105 36
5 1 30 -19 55 -43z"/>
        <path d="M10369 10793 c-407 -188 -948 -328 -1719 -442 -517 -77 -701 -106
-815 -127 -490 -92 -850 -239 -1069 -436 -134 -119 -245 -300 -286 -462 -24
-97 -28 -279 -35 -2048 -4 -1004 -3 -1218 8 -1218 7 0 44 47 81 104 116 178
273 316 461 406 257 123 475 162 1080 195 1096 59 2181 205 2905 391 289 74
420 115 420 131 0 8 -45 180 -101 382 -152 552 -281 1023 -459 1681 -89 327
-213 784 -276 1014 -63 231 -114 425 -114 432 0 23 -28 22 -81 -3z m75 -129
c16 -58 26 -107 24 -109 -10 -9 -274 -99 -408 -138 -399 -118 -822 -202 -1540
-307 -424 -62 -641 -99 -833 -144 -304 -72 -569 -179 -772 -313 -116 -77 -308
-263 -373 -362 -46 -69 -49 -66 -27 25 63 269 299 520 626 666 281 125 531
185 1159 278 879 130 1260 207 1665 337 109 35 308 111 395 152 25 11 48 21
51 21 3 0 18 -48 33 -106z m83 -305 c55 -205 212 -779 219 -801 5 -17 -26 -18
-566 -18 l-572 0 -29 -29 c-24 -24 -29 -38 -29 -76 0 -38 5 -52 29 -76 l29
-29 596 0 596 0 10 -22 c9 -22 80 -280 80 -292 0 -3 -113 -6 -250 -6 -204 0
-256 -3 -280 -15 -37 -19 -50 -43 -50 -95 0 -33 6 -48 29 -71 l29 -29 291 0
290 0 11 -37 c5 -21 54 -200 109 -398 l98 -360 -699 -5 -700 -5 -24 -28 c-36
-42 -34 -109 5 -148 l29 -29 724 0 724 0 62 -222 c34 -123 63 -234 64 -247 3
-21 -5 -26 -112 -57 -736 -219 -1905 -390 -3150 -459 -513 -29 -717 -57 -945
-132 -99 -32 -237 -100 -329 -161 -89 -59 -219 -187 -286 -282 l-53 -75 7
1000 c3 550 6 1082 6 1183 l0 182 1015 0 c765 0 1021 3 1040 12 76 34 71 170
-6 197 -23 8 -328 11 -1040 11 l-1009 0 0 198 0 198 49 79 c179 291 472 501
893 640 247 81 500 132 1073 215 861 125 1349 230 1800 387 72 25 137 49 145
54 8 4 20 7 25 5 6 -1 29 -72 52 -157z m85 -859 l147 0 16 -52 c29 -98 92 -88
-555 -88 -413 0 -576 3 -595 12 -28 12 -38 39 -33 84 6 55 13 56 463 50 226
-3 476 -6 557 -6z m311 -594 c9 -35 17 -67 17 -70 0 -3 -124 -6 -275 -6 -262
0 -276 1 -295 20 -24 24 -27 82 -4 104 13 14 53 16 278 16 l262 0 17 -64z
m-2385 -222 c27 -19 30 -78 5 -106 -15 -17 -61 -18 -1035 -18 l-1018 0 0 70 0
70 1013 0 c900 0 1015 -2 1035 -16z m2654 -769 c9 -27 17 -60 17 -72 l1 -23
-694 0 c-431 0 -705 4 -721 10 -51 20 -54 102 -4 127 18 10 179 12 704 10
l680 -2 17 -50z"/>
        <path d="M2076 10798 c-2 -7 -39 -143 -81 -303 -107 -402 -525 -1938 -691
-2535 -184 -665 -192 -699 -174 -710 8 -5 111 -36 229 -69 726 -205 1714 -352
2906 -431 617 -41 780 -60 992 -115 258 -68 426 -160 594 -325 58 -58 130
-140 158 -183 29 -43 58 -76 64 -74 16 5 23 602 27 2122 3 1287 8 1188 -70
1353 -131 276 -439 495 -861 612 -229 63 -455 104 -956 170 -1077 143 -1552
249 -1987 446 -125 57 -144 62 -150 42z m242 -122 c414 -169 908 -275 1867
-401 603 -80 821 -121 1070 -202 407 -132 683 -365 783 -658 l27 -80 3 -500
c2 -275 1 -564 -3 -642 l-7 -143 -320 0 -320 0 -29 -29 c-48 -48 -37 -136 20
-166 25 -13 80 -15 341 -15 l310 0 0 -111 0 -112 -587 7 c-555 7 -590 6 -623
-11 -26 -13 -39 -29 -50 -61 -14 -40 -13 -45 5 -80 11 -20 31 -42 45 -49 19
-10 161 -13 618 -13 l592 0 0 -438 c0 -242 -3 -527 -7 -635 l-6 -196 -50 67
c-167 223 -432 391 -736 467 -199 50 -385 72 -871 105 -322 21 -731 54 -890
71 -926 98 -1499 194 -2077 351 -103 27 -205 55 -225 60 -21 6 -38 16 -38 22
0 6 8 40 18 76 l19 65 501 5 500 5 26 24 c14 13 28 39 32 56 7 38 -16 99 -43
113 -11 6 -205 12 -480 14 -255 2 -465 7 -468 9 -4 5 78 314 151 567 l15 54
977 -8 977 -7 32 27 c54 46 54 134 -1 169 -33 22 -228 27 -1113 28 -447 0
-813 2 -813 4 0 4 114 426 135 500 l14 51 336 -4 c363 -5 378 -3 408 47 27 45
22 95 -12 133 l-29 33 -321 3 c-177 2 -321 5 -321 7 0 2 13 53 30 112 72 262
321 1188 345 1283 15 57 29 108 31 112 3 4 27 -4 55 -17 27 -14 98 -45 157
-69z m22 -1486 c24 -24 26 -67 4 -98 l-15 -22 -340 0 c-319 0 -340 1 -335 18
3 9 10 37 16 62 7 25 14 48 17 53 2 4 146 7 319 7 301 0 315 -1 334 -20z
m1050 -769 c34 -24 39 -80 10 -106 -20 -18 -48 -19 -868 -17 -466 1 -902 5
-968 8 l-121 7 14 56 c8 31 16 62 18 68 3 10 204 11 947 7 877 -6 945 -7 968
-23z m2588 -408 l82 -6 0 -70 0 -70 -187 6 c-104 4 -245 7 -315 7 -102 0 -130
3 -142 16 -23 22 -20 80 4 104 19 19 33 20 248 20 125 0 264 -3 310 -7z
m-3784 -424 c30 -24 34 -63 10 -97 l-15 -22 -490 0 c-269 0 -489 1 -489 3 0 4
29 104 35 125 3 9 105 12 463 12 450 0 460 0 486 -21z m3861 -74 l0 -70 -110
0 c-60 0 -327 1 -592 3 -468 2 -484 3 -503 22 -26 26 -25 68 2 97 l22 23 590
-2 591 -3 0 -70z"/>
        <path d="M2931 9236 c-65 -36 -66 -151 -2 -186 13 -6 197 -10 525 -10 l504 0
31 26 c27 23 31 32 31 79 0 47 -4 56 -31 79 l-31 26 -501 0 c-398 -1 -507 -3
-526 -14z m1043 -48 c23 -32 20 -65 -9 -93 l-24 -25 -481 0 c-480 0 -511 2
-532 34 -13 20 -8 69 9 88 15 17 44 18 519 18 l503 0 15 -22z"/>
    </g>
</svg>