<?xml version="1.0" standalone="no"?>
<svg version="1.0" xmlns="http://www.w3.org/2000/svg"
    width="1254.000000pt" height="1254.000000pt" viewBox="0 0 1254.000000 1254.000000"
    preserveAspectRatio="xMidYMid meet">

    <g transform="translate(0.000000,1254.000000) scale(0.100000,-0.100000)"
        fill="#000000" stroke="none">
        <path d="M5960 10990 c-254 -26 -459 -111 -699 -289 -74 -55 -146 -103 -160
-106 -14 -3 -71 4 -126 15 -345 70 -623 5 -816 -191 -95 -95 -133 -177 -134
-284 0 -129 27 -179 200 -365 144 -155 326 -382 417 -521 86 -129 219 -360
215 -372 -1 -4 -25 -24 -52 -45 -90 -68 -145 -195 -130 -302 8 -58 53 -154 90
-193 15 -16 25 -29 24 -31 -348 -245 -770 -628 -1038 -941 -407 -474 -724
-1016 -906 -1545 -120 -351 -173 -646 -182 -1010 -13 -527 79 -974 294 -1422
l66 -137 -54 -63 c-181 -209 -261 -413 -230 -583 68 -369 604 -551 1983 -675
628 -56 1110 -74 1803 -67 575 6 751 13 1175 48 887 73 1483 184 1779 333 133
68 245 172 285 267 77 185 12 423 -181 660 l-64 79 40 79 c345 677 412 1479
192 2286 -188 689 -638 1466 -1203 2073 -247 266 -611 560 -881 712 -49 28
-58 36 -52 54 25 86 28 136 12 201 -22 88 -67 149 -149 204 l-67 45 26 45
c137 242 330 477 624 760 81 78 161 163 178 189 40 63 65 161 56 221 -34 235
-326 454 -689 516 -115 20 -322 19 -449 -1 -56 -9 -116 -14 -134 -11 -20 4
-61 29 -106 65 -188 154 -361 239 -575 281 -115 23 -278 32 -382 21z m340
-264 c133 -37 275 -110 412 -215 185 -140 241 -155 453 -127 266 36 473 6 665
-96 155 -82 226 -188 189 -284 -5 -16 -92 -109 -192 -209 -287 -284 -468 -514
-621 -788 -37 -66 -40 -68 -70 -63 -17 3 -114 10 -216 16 -102 6 -209 13 -238
16 l-53 6 6 31 c14 68 108 335 155 436 168 368 372 609 606 718 46 21 83 42
84 47 0 5 -61 6 -137 3 -214 -8 -318 -51 -454 -186 -93 -93 -151 -181 -239
-365 -89 -185 -147 -349 -222 -630 l-13 -49 -324 -1 -323 0 -50 135 c-154 420
-306 768 -412 944 -20 33 -36 57 -36 53 0 -4 38 -141 84 -305 91 -320 216
-799 216 -826 0 -15 -12 -17 -85 -17 -47 0 -85 4 -85 9 0 14 -195 334 -274
451 -172 253 -345 437 -561 596 -34 25 -29 16 41 -71 186 -231 341 -479 495
-790 54 -111 99 -206 99 -212 0 -12 -101 -25 -112 -15 -4 4 -33 54 -64 112
-175 322 -385 610 -652 894 -84 89 -112 134 -112 181 0 39 24 88 66 134 114
127 304 162 569 106 214 -45 286 -30 430 91 178 151 298 224 433 264 109 33
163 39 312 35 106 -3 155 -9 230 -29z m-124 -1939 c10 -9 9 -10 -76 -113 -170
-205 -184 -214 -353 -214 -70 0 -117 4 -117 10 0 16 114 172 172 235 77 85
108 96 250 93 64 -2 120 -7 124 -11z m346 -3 c14 -8 3 -26 -74 -122 -49 -62
-115 -132 -146 -155 l-55 -42 -123 0 c-67 0 -125 3 -129 7 -8 8 130 183 197
251 69 70 94 78 213 74 55 -2 108 -8 117 -13z m-725 -2 c17 -11 -207 -282
-256 -308 -41 -22 -218 -42 -253 -29 -16 6 -15 11 9 54 78 136 190 264 246
280 38 11 237 14 254 3z m1056 -7 c9 -4 17 -11 17 -15 0 -15 -138 -186 -184
-228 -26 -24 -63 -50 -81 -58 -39 -16 -221 -19 -244 -5 -12 8 -3 24 44 83 184
230 199 241 335 234 52 -2 103 -7 113 -11z m-1420 -11 c3 -3 -18 -34 -46 -69
-29 -34 -79 -100 -113 -147 -41 -56 -73 -90 -96 -101 -41 -20 -139 -23 -187
-6 -36 13 -36 19 6 104 63 127 145 202 235 215 66 9 193 12 201 4z m1747 -14
c11 -6 20 -15 20 -19 0 -19 -83 -131 -140 -188 -83 -84 -120 -97 -256 -90 -58
2 -108 7 -110 10 -9 8 203 263 238 286 30 20 42 22 130 17 54 -3 107 -10 118
-16z m-2100 -15 c0 -3 -20 -29 -43 -59 -24 -29 -61 -81 -82 -115 -42 -68 -55
-66 -55 7 0 53 20 93 62 126 36 27 118 55 118 41z m2248 -19 c88 -46 113 -156
51 -222 -12 -13 -47 -33 -78 -45 -48 -18 -69 -20 -146 -14 -137 10 -134 6 -62
88 34 40 87 102 117 140 56 70 72 77 118 53z m-565 -382 c62 -32 97 -65 137
-134 61 -105 64 -100 -40 -79 -50 9 -105 23 -123 30 -49 19 -86 58 -93 98 -3
20 -8 44 -10 53 -3 11 5 22 23 32 36 20 67 20 106 0z m756 -70 c384 -208 798
-575 1060 -939 31 -44 111 -154 176 -245 582 -807 864 -1577 865 -2360 0 -723
-258 -1388 -687 -1771 -34 -30 -62 -57 -62 -60 -2 -12 202 67 328 127 l124 58
64 -69 c102 -112 141 -215 113 -301 -53 -161 -265 -280 -592 -331 -182 -28
-658 -21 -831 13 l-28 6 38 20 c56 30 293 182 289 185 -2 2 -43 -12 -92 -30
-466 -178 -1021 -287 -1664 -328 -251 -16 -944 -6 -1140 16 -325 36 -663 97
-878 159 -118 35 -336 110 -404 140 -21 9 -38 14 -38 12 0 -2 43 -35 96 -72
53 -38 92 -69 87 -71 -118 -32 -622 -54 -776 -34 -247 33 -463 142 -526 266
-56 109 -25 221 97 347 l64 67 57 -38 c108 -73 263 -147 436 -207 l40 -14 -50
41 c-27 23 -106 99 -175 168 -312 314 -508 740 -606 1311 -25 145 -31 558 -10
732 63 548 278 1094 649 1653 354 532 910 1096 1424 1443 l62 42 96 0 97 0
-31 -37 c-99 -118 -244 -310 -325 -430 -96 -143 -211 -332 -204 -338 2 -2 41
39 88 91 125 140 496 503 639 626 l125 106 260 7 c144 3 367 5 496 3 l234 -3
26 -70 c56 -148 128 -263 229 -366 76 -77 207 -233 269 -323 71 -100 172 -272
172 -292 0 -11 11 -52 25 -92 14 -40 32 -101 41 -135 32 -126 80 -174 198
-204 59 -14 79 -15 140 -4 190 32 269 150 221 329 -31 116 -76 222 -100 238
-13 8 -26 27 -30 42 -18 73 -220 368 -355 517 -66 73 -181 204 -215 243 l-19
23 26 -10 c133 -50 413 -220 612 -370 301 -227 678 -599 840 -828 16 -24 31
-41 33 -39 12 12 -118 265 -201 391 -246 373 -605 690 -1064 941 l-113 62 61
7 c34 4 74 11 88 15 41 13 39 13 131 -36z m-686 -179 c149 -26 198 -55 288
-171 21 -28 39 -53 39 -55 0 -5 -229 0 -257 6 -35 8 -87 59 -136 133 -52 78
-69 119 -43 109 9 -4 58 -14 109 -22z m351 -287 c46 -11 119 -77 172 -154 20
-30 35 -56 33 -57 -2 -2 -60 -1 -129 3 -152 9 -165 15 -261 132 l-70 83 58 6
c65 7 139 2 197 -13z m194 -263 c67 -20 102 -51 140 -123 18 -33 32 -63 32
-66 0 -3 -25 -6 -55 -6 -30 0 -74 -7 -98 -15 -38 -13 -50 -13 -83 -2 -39 14
-49 27 -153 195 l-20 32 93 0 c54 0 114 -6 144 -15z m184 -281 c25 -8 54 -25
65 -37 23 -24 73 -168 73 -207 0 -25 -1 -25 -83 -25 -67 -1 -92 -6 -139 -27
-32 -15 -60 -23 -63 -19 -8 14 -75 240 -75 254 0 20 31 45 76 61 52 19 91 19
146 0z"/>
        <path d="M5990 6904 c-95 -12 -256 -50 -350 -84 -618 -221 -1059 -758 -1177
-1435 -13 -75 -17 -156 -17 -325 0 -207 2 -236 27 -355 70 -332 221 -637 436
-882 242 -275 585 -477 945 -555 87 -19 132 -22 321 -22 191 0 233 3 318 22
460 103 846 370 1104 763 257 392 358 862 287 1334 -114 756 -670 1363 -1389
1517 -88 18 -415 33 -505 22z m308 -576 c3 -144 -8 -126 94 -148 204 -43 379
-175 467 -351 23 -46 41 -92 39 -103 -2 -17 -30 -30 -153 -73 -82 -28 -157
-52 -166 -52 -8 -1 -23 16 -33 36 -40 84 -113 151 -203 186 l-43 17 0 -288 0
-288 73 -23 c277 -88 421 -190 502 -355 37 -74 65 -194 65 -276 0 -64 -23
-181 -49 -251 -26 -68 -104 -182 -157 -228 -94 -83 -234 -148 -368 -172 l-65
-11 -3 -126 -3 -127 -137 -3 -138 -3 0 130 0 129 -42 7 c-264 41 -468 179
-571 385 -26 52 -50 109 -53 126 l-6 31 129 43 c70 23 147 48 170 56 l43 13
27 -57 c50 -106 172 -209 271 -228 l32 -6 0 305 0 305 -107 37 c-235 81 -366
179 -436 326 -46 98 -61 165 -61 274 1 166 53 301 162 417 98 103 213 169 347
198 107 22 95 4 95 150 l0 131 138 -3 137 -3 3 -127z"/>
        <path d="M5923 5800 c-86 -49 -125 -114 -125 -210 0 -113 62 -189 197 -240
l25 -10 0 245 0 245 -22 0 c-13 0 -46 -14 -75 -30z"/>
        <path d="M6300 4579 l0 -271 33 7 c97 22 185 99 211 186 20 66 20 92 1 156
-11 36 -28 62 -59 91 -49 45 -62 53 -135 81 l-51 21 0 -271z"/>
        <path d="M9341 4983 c-72 -620 -322 -1213 -677 -1604 -81 -89 -194 -195 -281
-263 -35 -27 -63 -50 -63 -52 0 -5 115 43 200 84 225 108 465 311 584 494 248
382 337 820 271 1332 -8 60 -16 110 -18 112 -2 2 -9 -44 -16 -103z"/>
        <path d="M3070 4696 c0 -51 5 -151 10 -222 49 -615 277 -980 747 -1201 51 -24
94 -43 97 -43 2 0 -49 53 -113 118 -128 128 -264 303 -354 454 -158 265 -300
626 -354 896 -10 51 -21 92 -25 92 -5 0 -8 -42 -8 -94z"/>
    </g>
</svg>
